<svg xmlns="http://www.w3.org/2000/svg" viewBox="0 0 1701.48 201.12"><g data-name="Layer 2"><path d="M74 155.87a139 139 0 0 0 45.25-7.87v6.87a147.66 147.66 0 0 1-45.77 7.63C35.09 162.48 0 143.92 0 81.62S35.09 0 73 0c16 0 31.53 3.31 46.28 8.65v6.87a127.94 127.94 0 0 0-45.54-8.65c-34.58 0-66.62 16.52-66.62 74.75 0 58.48 32.04 74.25 66.88 74.25zm213.83-74.76c0 52.89-22.38 81.37-72 81.37-49.84 0-72.47-28.48-72.47-81.37C143.41 28.73 166 0 215.87 0c49.59 0 71.96 28.73 71.96 81.11zm-6.87 0c0-48.57-19.58-74.25-65.09-74.25-46 0-65.35 25.68-65.35 74.25 0 49.08 19.32 74.76 65.35 74.76 45.52 0 65.13-25.68 65.13-74.76zm149.77 79.08Q378.47 87 325.71 13.73v146.46h-7.12V2.54h7.63l105 146.72V2.54h7.12v157.65zm159.42 0Q537.89 87 485.13 13.73v146.46H478V2.54h7.63l105 146.72V2.54h7.12v157.65zM778 81.11c0 52.89-22.38 81.37-72 81.37-49.84 0-72.47-28.48-72.47-81.37C633.62 28.73 656.25 0 706.08 0 755.67 0 778 28.73 778 81.11zm-6.87 0c0-48.57-19.58-74.25-65.09-74.25-46 0-65.35 25.68-65.35 74.25 0 49.08 19.32 74.76 65.35 74.76 45.56 0 65.14-25.68 65.14-74.76zm144.46 79.08l-43.73-67.64H821v67.64h-7.12V2.54h53.65c32.8 0 50.85 17.29 50.85 44.75 0 29-20.85 41.7-39.16 44l44.5 68.91zM821 9.15v76.79h46c29.5 0 44.24-15.51 44.24-38.14 0-21.1-12.21-38.65-44.24-38.65zm233.92 111.12c0 22.63-16 42.21-54.41 42.21a121.59 121.59 0 0 1-49.07-9.92v-7.63c12.21 5.85 28.22 10.68 48.82 10.68 31.53 0 47.55-15 47.55-35.34 0-54.16-94.84-23.65-94.84-79.33C953 18.82 968 0 1002.29 0A109.53 109.53 0 0 1 1047 9.41v7.12a109.93 109.93 0 0 0-44-9.66c-28.48 0-43 14-43 34.07.08 48.06 94.92 19.06 94.92 79.33zm221.47 39.92h-9.15l-19.07-22.12c-11.7 14.24-27.71 24.41-48.57 24.41-27.71 0-47-18.56-47-44.24 0-21.87 14.49-36.62 36.11-49.07-11.44-13.73-18.31-25.43-18.31-38.65 0-17.8 12.71-30.26 31.28-30.26 21.61 0 30.51 15.26 30.51 30.51 0 18.05-14.49 29.24-33.05 40.17l48.82 56.19a116.28 116.28 0 0 0 13.48-28h6.87a112.9 112.9 0 0 1-15.77 33.31zm-32.55-27l-50.85-59c-21.1 12-33.56 25.43-33.56 44.5 0 20.6 16.27 36.87 40.43 36.87 19.31.05 33.81-9.56 43.98-22.32zm-66.62-102.42c0 10.43 6.36 21.36 17.8 35.34 19.58-11.19 30.26-21.36 30.26-34.58 0-12.21-6.36-24.66-23.65-24.66-15 0-24.41 10.93-24.41 23.9zm261.13 125.1a139 139 0 0 0 45.26-7.88v6.87a147.66 147.66 0 0 1-45.77 7.63c-38.39 0-73.48-18.56-73.48-80.86S1399.44 0 1437.33 0c16 0 31.53 3.31 46.28 8.65v6.87a127.94 127.94 0 0 0-45.52-8.65c-34.58 0-66.62 16.53-66.62 74.76 0 58.47 32.04 74.24 66.88 74.24zm213.84-74.76c0 52.89-22.38 81.37-72 81.37-49.84 0-72.47-28.48-72.47-81.37 0-52.38 22.63-81.11 72.47-81.11 49.62 0 72 28.73 72 81.11zm-6.87 0c0-48.57-19.58-74.25-65.09-74.25-46 0-65.35 25.68-65.35 74.25 0 49.08 19.33 74.76 65.35 74.76 45.51 0 65.09-25.68 65.09-74.76zM1693.5 146a8.07 8.07 0 0 1 8 8 8 8 0 0 1-8 7.87 7.87 7.87 0 0 1-7.86-7.87 8 8 0 0 1 7.86-8zm-325.37 50.27a5.17 5.17 0 0 1 3.42-1.93c2-.1 8 .57 12.66.46s27.55-.26 32-.46 13.51 0 17.79 0 12.5 1 18.16.92 7.88.27 12.15 0c4.53-.28 20-.45 26.31-.45s19.87.23 24.1.45 7.75 1.22 15.29 1.72 40.21.77 49.62.54 24.65-1.14 29.45-1 19.84 0 24.13 0 18.16.35 19.68 1.83-1.92 2.35-5.26 2.44c-3.79.12-6.55.63-10.32.15 0 0-11.65-1.26-16.6-1.26s-11.47-.33-20.54.23-21.39 1.14-24.3 1.14-29.11.11-33.54-.68-17.1-1.15-20.88-1.26-12-1.82-21.1-1.82h-17.76c-3.94 0-18.65.87-23.44.79s-11.3-.89-15.56-.89h-36.47c-6.67 0-20.19.23-25 .33s-14.65-.52-13.99-1.25z" fill="#010101" data-name="Layer 1"/></g></svg>