<svg xmlns="http://www.w3.org/2000/svg" viewBox="0 0 1701.48 201.12"><defs><style>.cls-1{fill:#010101;}</style></defs><title>Asset 1</title><g id="Layer_2" data-name="Layer 2"><g id="Layer_1-2" data-name="Layer 1"><path class="cls-1" d="M74,155.87A139,139,0,0,0,119.25,148v6.87a147.66,147.66,0,0,1-45.77,7.63C35.09,162.48,0,143.92,0,81.62S35.09,0,73,0c16,0,31.53,3.31,46.28,8.65v6.87A127.94,127.94,0,0,0,73.74,6.87C39.16,6.87,7.12,23.39,7.12,81.62,7.12,140.1,39.16,155.87,74,155.87Z"/><path class="cls-1" d="M287.83,81.11c0,52.89-22.38,81.37-72,81.37-49.84,0-72.47-28.48-72.47-81.37C143.41,28.73,166,0,215.87,0,265.46,0,287.83,28.73,287.83,81.11Zm-6.87,0c0-48.57-19.58-74.25-65.09-74.25-46,0-65.35,25.68-65.35,74.25,0,49.08,19.32,74.76,65.35,74.76C261.39,155.87,281,130.19,281,81.11Z"/><path class="cls-1" d="M430.73,160.19Q378.47,87,325.71,13.73V160.19h-7.12V2.54h7.63l105,146.72V2.54h7.12V160.19Z"/><path class="cls-1" d="M590.15,160.19Q537.89,87,485.13,13.73V160.19H478V2.54h7.63l105,146.72V2.54h7.12V160.19Z"/><path class="cls-1" d="M778,81.11c0,52.89-22.38,81.37-72,81.37-49.84,0-72.47-28.48-72.47-81.37C633.62,28.73,656.25,0,706.08,0,755.67,0,778,28.73,778,81.11Zm-6.87,0c0-48.57-19.58-74.25-65.09-74.25-46,0-65.35,25.68-65.35,74.25,0,49.08,19.32,74.76,65.35,74.76C751.6,155.87,771.18,130.19,771.18,81.11Z"/><path class="cls-1" d="M915.59,160.19,871.86,92.55H821v67.64h-7.12V2.54h53.65c32.8,0,50.85,17.29,50.85,44.75,0,29-20.85,41.7-39.16,44l44.5,68.91ZM821,9.15V85.94h46c29.5,0,44.24-15.51,44.24-38.14,0-21.1-12.21-38.65-44.24-38.65Z"/><path class="cls-1" d="M1054.92,120.27c0,22.63-16,42.21-54.41,42.21a121.59,121.59,0,0,1-49.07-9.92v-7.63c12.21,5.85,28.22,10.68,48.82,10.68,31.53,0,47.55-15,47.55-35.34,0-54.16-94.84-23.65-94.84-79.33C953,18.82,968,0,1002.29,0A109.53,109.53,0,0,1,1047,9.41v7.12a109.93,109.93,0,0,0-44-9.66c-28.48,0-43,14-43,34.07C960.08,89,1054.92,60,1054.92,120.27Z"/><path class="cls-1" d="M1276.39,160.19h-9.15l-19.07-22.12c-11.7,14.24-27.71,24.41-48.57,24.41-27.71,0-47-18.56-47-44.24,0-21.87,14.49-36.62,36.11-49.07-11.44-13.73-18.31-25.43-18.31-38.65,0-17.8,12.71-30.26,31.28-30.26,21.61,0,30.51,15.26,30.51,30.51,0,18.05-14.49,29.24-33.05,40.17l48.82,56.19a116.28,116.28,0,0,0,13.48-28h6.87a112.9,112.9,0,0,1-15.77,33.31Zm-32.55-27-50.85-59c-21.1,12-33.56,25.43-33.56,44.5,0,20.6,16.27,36.87,40.43,36.87C1219.17,155.61,1233.67,146,1243.84,133.24ZM1177.22,30.77c0,10.43,6.36,21.36,17.8,35.34,19.58-11.19,30.26-21.36,30.26-34.58,0-12.21-6.36-24.66-23.65-24.66C1186.63,6.87,1177.22,17.8,1177.22,30.77Z"/><path class="cls-1" d="M1438.35,155.87a139,139,0,0,0,45.26-7.88v6.87a147.66,147.66,0,0,1-45.77,7.63c-38.39,0-73.48-18.56-73.48-80.86S1399.44,0,1437.33,0c16,0,31.53,3.31,46.28,8.65v6.87a127.94,127.94,0,0,0-45.52-8.65c-34.58,0-66.62,16.53-66.62,74.76C1371.47,140.1,1403.51,155.87,1438.35,155.87Z"/><path class="cls-1" d="M1652.19,81.11c0,52.89-22.38,81.37-72,81.37-49.84,0-72.47-28.48-72.47-81.37,0-52.38,22.63-81.11,72.47-81.11C1629.81,0,1652.19,28.73,1652.19,81.11Zm-6.87,0c0-48.57-19.58-74.25-65.09-74.25-46,0-65.35,25.68-65.35,74.25,0,49.08,19.33,74.76,65.35,74.76C1625.74,155.87,1645.32,130.19,1645.32,81.11Z"/><path class="cls-1" d="M1693.5,146a8.07,8.07,0,0,1,8,8,8,8,0,0,1-8,7.87,7.87,7.87,0,0,1-7.86-7.87A8,8,0,0,1,1693.5,146Z"/><path class="cls-1" d="M1368.13,196.27a5.17,5.17,0,0,1,3.42-1.93c2-.1,8,.57,12.66.46s27.55-.26,32-.46,13.51,0,17.79,0,12.5,1,18.16.92,7.88.27,12.15,0c4.53-.28,20-.45,26.31-.45s19.87.23,24.1.45,7.75,1.22,15.29,1.72,40.21.77,49.62.54,24.65-1.14,29.45-1,19.84,0,24.13,0,18.16.35,19.68,1.83-1.92,2.35-5.26,2.44c-3.79.12-6.55.63-10.32.15,0,0-11.65-1.26-16.6-1.26s-11.47-.33-20.54.23-21.39,1.14-24.3,1.14-29.11.11-33.54-.68-17.1-1.15-20.88-1.26-12-1.82-21.1-1.82h-17.76c-3.94,0-18.65.87-23.44.79s-11.3-.89-15.56-.89h-36.47c-6.67,0-20.19.23-25,.33S1367.47,197,1368.13,196.27Z"/></g></g></svg>