<svg xmlns="http://www.w3.org/2000/svg"><defs><font id="maven_pro_light300" horiz-adv-x="1097"><font-face units-per-em="2048" ascent="1638" descent="-410"/><glyph horiz-adv-x="2048"/><glyph horiz-adv-x="2048"/><glyph horiz-adv-x="2048"/><glyph horiz-adv-x="636"/><glyph horiz-adv-x="636"/><glyph horiz-adv-x="636"/><glyph unicode="!" horiz-adv-x="632" d="M256 0v162h113V0H256zm6 1317h100l-10-979h-82z"/><glyph unicode="&quot;" horiz-adv-x="702" d="M156 1335h118l-24-411h-68q-16 274-26 411zm268 0h119q-15-205-27-411h-67z"/><glyph unicode="#" horiz-adv-x="1183" d="M137 281v86h189l59 350H197v84h204l45 260h86l-45-260h322l47 260h86l-47-260h162v-84H881l-62-350h176v-86H805L764 37h-86l41 244H397L354 37h-86l43 244H137zm275 86h321l62 350H471z"/><glyph unicode="$" horiz-adv-x="1132" d="M135 70v110Q304 80 530 80v559q-54 15-83.5 23.5t-77 26.5-74.5 34-60.5 42-51 55.5-30 70.5-12.5 90q0 70 23 130t69 108 122 78 175 36v193h66v-191q170-5 330-78v-104q-171 82-330 84V723q58-16 98-30t91-36.5 84.5-50.5 64.5-66 46-90.5T995 334q0-147-101.5-241.5T596-14v-215h-66v213q-223 0-395 86zm111 911q0-43 16-77.5t39.5-57.5 64-43.5T441 770t89-27v490q-139-10-211.5-77T246 981zM596 84q139 9 218 74.5T893 334q0 52-17 93.5t-41.5 69T767 548t-79.5 38.5T596 618V84z"/><glyph unicode="%" horiz-adv-x="1648" d="M137 956q0 105 25 178.5t68 109.5 88 50.5 98 14.5q41 0 77-8t74-31.5 64.5-61.5 43.5-102.5T692 956q0-86-17-150.5T631.5 703 567 641.5 493 610t-77-8q-42 0-78 8t-74.5 31.5T198 703t-44 102.5T137 956zm78 0q0-88 17-146.5t48.5-85.5 62.5-36.5 73-9.5q32 0 57 5t53 22 46 46.5 30 81.5 12 123q0 88-17 146.5t-48 86-61.5 37-71.5 9.5q-42 0-73-9.5t-62.5-37-48.5-86T215 956zM358 0l842 1317h90L451 0h-93zm598 360q0 106 25 180t68 110 87.5 50.5T1235 715q34 0 64-6t62.5-20 58.5-40.5 47-64 32.5-95T1511 360q0-86-17-150.5T1450.5 107 1386 45.5 1312 14t-77-8q-42 0-78 8t-74.5 31.5T1017 107t-44 102.5T956 360zm78 0q0-71 12-123.5t30.5-82 46.5-47 53.5-22.5 58.5-5q32 0 57.5 5.5T1346 108t46 46.5 30 82 12 123.5q0 88-16.5 146.5t-48 86-62 37-72.5 9.5-73-9.5-62.5-37-48.5-86-17-146.5z"/><glyph unicode="&amp;" horiz-adv-x="1234" d="M115 367q0 236 282 393-63 79-98 151t-35 152q0 120 76 195t199 75q130 0 201-78.5t71-195.5q0-101-63-173.5T553 735l350-407q62 103 94 213h101q-34-145-129-293L1178 0h-131L905 164Q745-18 516-18q-96 0-173.5 33T216 102.5 141 225t-26 142zm100-11q0-47 18.5-93.5t54-88 96.5-67T522 82q191 0 324 154L461 688q-138-77-192-157t-54-175zm147 705q0-99 130-254 123 66 172 123t49 119q0 83-44.5 135.5T541 1237t-131-52.5-48-123.5z"/><glyph unicode="'" horiz-adv-x="477" d="M174 1335h117l-25-411h-67z"/><glyph unicode="(" horiz-adv-x="622" d="M168 590q0 139 22.5 277t59.5 250 70.5 191 70.5 146h109q-32-56-64-126t-74-184.5-68-260T268 590q0-146 26-292t67.5-259T436-146t64-124H391q-37 67-70.5 145.5T250 65.5 190.5 314 168 590z"/><glyph unicode=")" horiz-adv-x="624" d="M123-270q32 58 63 126t73.5 183.5T328 300t26 292-26 292-68.5 260.5T186 1328t-63 126h108q37-67 70.5-146t71-191 60-249T455 592t-22.5-276.5-60-249.5-71-190T231-270H123z"/><glyph unicode="*" horiz-adv-x="784" d="M154 1083l190 95-190 92 39 65 174-114-15 204h78l-12-204 172 114 39-65-189-92 189-95-39-67-172 117 12-205h-78l15 205-174-117z"/><glyph unicode="+" horiz-adv-x="1062" d="M172 541v86h315v313h84V627h314v-86H571V227h-84v314H172z"/><glyph unicode="," horiz-adv-x="546" d="M135-209l133 377h115L236-209H135z"/><glyph unicode="-" horiz-adv-x="948" d="M147 532v99h646v-99H147z"/><glyph unicode="." horiz-adv-x="557" d="M227 0v162h113V0H227z"/><glyph unicode="/" horiz-adv-x="778" d="M-31-250l752 1747h94L61-250h-92z"/><glyph unicode="0" horiz-adv-x="1259" d="M129 655q0 678 504 678 255 0 378.5-169T1135 655q0-339-123.5-508.5T633-23q-504 0-504 678zm102 0q0-138 20.5-241.5T307 246t87.5-104T504 87t129-15 128.5 15 109 55T958 246t55.5 167.5T1034 655q0 137-20.5 240.5t-55.5 168-87 104.5-109.5 55.5T633 1239q-72 0-129-15t-109.5-55-87.5-104.5-55.5-168T231 655z"/><glyph unicode="1" horiz-adv-x="839" d="M195 1040v121l256 156h112V0H463v1210z"/><glyph unicode="2" horiz-adv-x="1126" d="M150 0v86q88 67 170.5 137T503 392t173 191 122.5 195.5T848 969q0 50-16.5 94t-53 83.5-104.5 63-160 23.5q-185 0-352-103v111q165 94 356 94 112 0 198-32t135.5-85.5 74-116.5T950 969q0-89-41.5-189.5T804 590.5t-152-183-167.5-165T317 100h662V0H150z"/><glyph unicode="3" d="M139 61v105q147-82 332-82 188 0 287.5 72.5T858 365 757.5 574.5 465 649H315v96h152q162 1 246 64.5T797 991q0 119-87 181.5T457 1235q-156 0-289-68v105q133 65 299 65 112 0 197-28t135.5-77 75-109.5T899 991q0-68-24-124t-60-88.5-71-50.5-64-21q34-3 78.5-26t91.5-63 79-108 32-148q0-79-27.5-145.5t-83-120-150-84T483-18q-193 0-344 79z"/><glyph unicode="4" horiz-adv-x="1142" d="M82 391v107q386 484 649 819h113V485h190v-94H844V0H743v391H82zm113 94h548v684q-46-58-548-684z"/><glyph unicode="5" horiz-adv-x="1140" d="M139 61v105q54-33 154-59.5T504 80q187 0 281 85t94 241q0 299-344 299-58 0-113.5-8.5t-85-17.5-66-22-39.5-14q-12 11-34 34t-27 28l74 612h653v-100H332q-46-388-53-455 127 43 260 43 66 0 124.5-10.5t118-38.5 102-72 69-117T979 399q0-100-30-176.5T872.5 102 761 30.5t-124.5-37T510-16Q405-16 305 5T139 61z"/><glyph unicode="6" horiz-adv-x="1144" d="M129 600q0 137 23.5 249.5t61.5 187 91 131 105.5 87.5 113.5 50 105.5 24.5 89.5 5.5q99 0 176-22v-92q-106 18-166 18-35 0-68.5-3.5t-82-16.5-90-35-86.5-62.5-78-94.5-57-136-31-182q56 45 143.5 77.5T578 819q201 0 319.5-109T1016 414q0-65-15-125t-48.5-116.5-83-97.5T745 9 578-16q-226 0-337.5 152.5T129 600zm100-2q0-520 349-520 81 0 143.5 24.5t98 60.5 57.5 84 29 87.5 7 79.5q0 149-87.5 230T578 725q-119 0-207.5-39T229 598z"/><glyph unicode="7" horiz-adv-x="1126" d="M137 1217v100h883v-94L496 0H383l528 1217H137z"/><glyph unicode="8" horiz-adv-x="1134" d="M125 379q0 66 21 123.5t52.5 94.5 70 64 71 39.5T397 715q-27 2-62.5 20t-72 51-61.5 91-25 127q0 142 99.5 237.5T573 1337t298-95.5T971 1004q0-71-24.5-128.5t-61-90-71-50T752 715q25-1 58-13.5t70.5-40 69-64.5 52-94.5T1022 379q0-78-26-147t-78-126-141-90.5T573-18 369.5 15.5t-140.5 90-78 126T125 379zm100 0q0-38 8.5-75t32.5-79 61-73.5T427.5 99 573 78t145.5 21T819 151.5t60.5 73.5 32 79 8.5 75q0 135-89.5 209T573 662q-166 0-257-74.5T225 379zm51 625q0-117 78-183.5T573 754q139 0 217 66.5t78 183.5q0 63-23.5 109.5t-66 72.5-93.5 38.5-112 12.5q-62 0-113.5-12.5t-94-38.5-66-72.5T276 1004z"/><glyph unicode="9" horiz-adv-x="1157" d="M119 903q0 65 15 125.5t48.5 117 83 98T390 1310t167 25q226 0 337.5-154T1006 715q0-107-14.5-199t-39-160T893 231.5t-73.5-94-84-66.5T649 26 563 0t-79-13-68-3q-88 0-176 18v94q81-18 166-18 35 0 68.5 3.5t82 16.5 90 34.5 86 62T810 289t57 135.5T897 606q-53-44-140.5-76T557 498q-203 0-320.5 108T119 903zm102 0q0-149 88-230t248-81q120 0 208.5 39T905 719q0 520-348 520-81 0-144-24.5t-98-60.5-57.5-83.5T228 983t-7-80z"/><glyph unicode=":" horiz-adv-x="643" d="M268 66v161h113V66H268zm0 696v164h113V762H268z"/><glyph unicode=";" horiz-adv-x="690" d="M158-209l133 377h115L258-209H158zm131 971v164h112V762H289z"/><glyph unicode="&lt;" horiz-adv-x="1228" d="M205 494v96l809 364V842L324 541l690-301V127z"/><glyph unicode="=" horiz-adv-x="1183" d="M213 358v99h754v-99H213zm0 351v96h754v-96H213z"/><glyph unicode="&gt;" horiz-adv-x="1214" d="M221 127v113l688 301-688 301v112q701-317 807-364v-96Q716 354 221 127z"/><glyph unicode="?" horiz-adv-x="903" d="M137 1157v109q121 67 262 67 45 0 90-7t101-29 98-57.5 71-99.5 29-147q0-64-17-114.5T727.5 795t-59-61.5-65.5-58-59.5-64T500 524t-17-121v-65H381v74q0 76 17 136t43.5 98.5 59 70.5 65.5 59 59.5 55.5T669 901t17 92q0 120-81.5 180T399 1233q-149 0-262-76zM375 0v162h112V0H375z"/><glyph unicode="@" horiz-adv-x="1869" d="M158 356q0 147 50.5 284.5t137 243.5 198 185.5 239 121.5 253.5 42q99 0 196-26.5t186-82 157-134T1683.5 799t40.5-246q0-205-91-344T1399 70q-90 0-143 44.5T1188 223q-27-68-105.5-110.5T893 70q-78 0-141 22.5t-104.5 73T606 289q0 118 105 197t311 79q89 0 180-16 0 11 2 33t2 34q0 42-8 71t-30.5 55.5T1099 782t-116 13q-124 0-229-37l10 80q113 36 227 36 150 0 223.5-65t73.5-197q0-50-17.5-166.5T1253 279q0-71 29-111.5t104-40.5q119 0 202 116t83 304q0 147-53 269t-142 200.5-202.5 121T1036 1180t-245.5-40.5-225-116.5-183-176.5-124.5-229T213 352q0-122 37.5-225.5T351-48.5t147-121 175.5-73T860-266q214 0 391 94l-14-64q-83-40-187.5-60.5T850-317q-134 0-257 45T372.5-144t-156 213T158 356zm530-63q0-42 19.5-73t52.5-46 66.5-22 70.5-7q106 0 175.5 38.5T1163 299q10 41 29 176-71 14-162 14-153 0-247.5-47.5T688 293z"/><glyph unicode="A" horiz-adv-x="1282" d="M51 0q90 219 268.5 658.5T588 1317h100L1223 0h-109q-31 74-86.5 215T946 418H328L162 0H51zm316 514h542l-272 680z"/><glyph unicode="B" horiz-adv-x="1200" d="M160 0v1317h432q117 0 202.5-27.5T927 1214t69-105.5 22-125.5-20-124.5-51-89.5-61.5-52-56.5-23q23-2 53-12.5t68.5-36 69.5-61 52.5-95T1094 358q0-176-120-267T637 0H160zm100 94h385q76 0 136 14t108.5 45 75 85T991 367q0 264-350 264H260V94zm0 631h354q141 0 222.5 58.5T918 971q0 250-316 250H260V725z"/><glyph unicode="C" horiz-adv-x="1212" d="M125 657q0 177 44 309t125.5 212.5 191 119.5 247.5 39q204 0 395-75v-97q-199 76-383 76-121 0-214-31.5t-163-99T261.5 929 225 657t37-271.5 107-180 162.5-97T745 78q195 0 383 72V53Q931-18 735-18q-139 0-248.5 38T295 137.5t-126 211T125 657z"/><glyph unicode="D" horiz-adv-x="1296" d="M158 0v1317h401q623 0 623-660Q1182 0 559 0H158zm102 94h291q271 0 399.5 137.5T1079 657q0 289-128.5 427.5T551 1223H260V94z"/><glyph unicode="E" horiz-adv-x="1083" d="M160 0v1317h815v-94H260V713h631v-99H260V96h715V0H160z"/><glyph unicode="F" horiz-adv-x="1036" d="M160 0v1317h792v-94H260V711h608v-99H260V0H160z"/><glyph unicode="G" horiz-adv-x="1316" d="M123 657q0 177 44 308.5T293 1177t191.5 119 248.5 39q202 0 404-78v-98q-199 78-392 78-121 0-214-31.5T368 1107 261.5 926.5 225 657q0-158 36.5-271.5t106.5-180 163-97T745 78q170 0 330 55v461H707v98h471V76Q978-16 735-16q-139 0-249 38T293.5 139 167 349t-44 308z"/><glyph unicode="H" horiz-adv-x="1288" d="M160 0v1317h100V709h760v608h102V0h-102v610H260V0H160z"/><glyph unicode="I" horiz-adv-x="432" d="M160 0v1317h100V0H160z"/><glyph unicode="J" horiz-adv-x="847" d="M66 47v105q113-70 243-70 138 0 202 71.5T575 381v936h103V373q0-89-20-157.5t-53-112T525 32 428.5-7 322-18Q183-18 66 47z"/><glyph unicode="K" horiz-adv-x="1142" d="M160 2v1315h100V586l662 731h135L496 702 1106 0H973L430 631 260 446V2H160z"/><glyph unicode="L" horiz-adv-x="1005" d="M160 0v1317h100V98h690V0H160z"/><glyph unicode="M" horiz-adv-x="1521" d="M160 0v1317h108l490-713 489 713h111V0h-103v1149L758 436l-498 713V0H160z"/><glyph unicode="N" horiz-adv-x="1370" d="M158 0v1317h114l830-1167v1167h102V0h-112L260 1165V0H158z"/><glyph unicode="O" horiz-adv-x="1472" d="M125 659q0 678 606 678 608 0 608-678 0-677-608-677-606 0-606 677zm100 0q0-296 122-438.5T731 78q263 0 384.5 142.5T1237 659q0 295-121.5 438.5T731 1241q-261 0-383.5-143.5T225 659z"/><glyph unicode="P" horiz-adv-x="1128" d="M158 2v1315h442q215 0 331-105t116-294q0-192-118.5-296T598 518H258V2H158zm100 612h328q101 0 173.5 24t112 68 57 96T946 918q0 301-358 301H258V614z"/><glyph unicode="Q" horiz-adv-x="1466" d="M125 659q0 678 606 678 608 0 608-678 0-645-553-675 45-215 301-226v-92q-87 1-156.5 23T819-257t-72 76.5-43 83T684-16Q125 11 125 659zm100 0q0-296 122-438.5T731 78q263 0 384.5 142.5T1237 659q0 295-121.5 438.5T731 1241q-261 0-383.5-143.5T225 659z"/><glyph unicode="R" horiz-adv-x="1191" d="M158 0v1317h467q209 0 322.5-98.5T1061 938q0-78-23-142t-57.5-103.5-79-68.5-82.5-42.5-74-18.5L1112 0H993L639 547H260V0H158zm102 643h358q95 0 163 22.5t105.5 64 54.5 91T958 932q0 289-340 289H260V643z"/><glyph unicode="S" horiz-adv-x="1112" d="M125 72v108q173-98 393-98 163 0 264 64.5T883 336q0 66-25.5 116t-69 81-100 54-119 40.5l-125 35-119 42.5-100 59.5-69 89.5L131 981q0 71 24.5 133t74.5 113 136 80.5 199 29.5q183 0 350-80v-104q-161 84-340 84-166 0-252.5-67.5T236 981q0-55 25.5-96t69-66.5 100-45.5 119-37.5 124.5-37 118.5-49 100-69 69-102T987 336q0-160-119.5-257T526-18q-217 0-401 90z"/><glyph unicode="T" horiz-adv-x="1132" d="M35 1219v98h1059v-98H616V0H514v1219H35z"/><glyph unicode="U" horiz-adv-x="1353" d="M150 518v799h102V514q0-219 106-329.5T670 74q208 0 314 110.5T1090 514v803h102V518q0-260-134.5-397T670-16q-251 0-385.5 137T150 518z"/><glyph unicode="V" horiz-adv-x="1228" d="M39 1317h108L612 145l463 1172h109L662 0H561z"/><glyph unicode="W" horiz-adv-x="1865" d="M39 1317h108Q287 864 514 143q266 844 371 1174h100l369-1174 366 1174h109L1405 0h-100q-53 166-178.5 555T934 1155L565 0H463z"/><glyph unicode="X" horiz-adv-x="1169" d="M47 0l473 668-459 649h121l400-563 401 563h123L645 668 1116 0H995L582 580 170 0H47z"/><glyph unicode="Y" horiz-adv-x="1161" d="M37 1317h123l420-639 419 639h121L631 580V0H528v580z"/><glyph unicode="Z" horiz-adv-x="1202" d="M131 0v86q670 947 803 1137H154v94h911v-86L260 92h811V0H131z"/><glyph unicode="[" horiz-adv-x="694" d="M203-274v1691h346v-96H303V-178h246v-96H203z"/><glyph unicode="\" horiz-adv-x="731" d="M-61 1497h92L782-250h-92z"/><glyph unicode="]" horiz-adv-x="712" d="M156-178h241v1499H156v96h344V-274H156v96z"/><glyph unicode="^" horiz-adv-x="1011" d="M213 926q45 86 125 244t106 208h78l234-452h-86l-185 370-188-370h-84z"/><glyph unicode="_" horiz-adv-x="1028" d="M0-49h1026v-62H0v62z"/><glyph unicode="`" horiz-adv-x="473" d="M98 1448h115l160-281h-78z"/><glyph unicode="a" horiz-adv-x="1067" d="M117 295q0 63 22 114.5t55.5 84.5 81 57 90 36 92.5 19 78 8.5 56 1.5q127 0 237-20 0 158-79.5 235.5T502 909q-132 0-283-45v99q139 47 289 47 218 0 321-105t103-311V291q0-65-20.5-116.5t-56.5-83-76.5-54-89-33T604-10t-74-4-76 4.5T366 6t-91.5 34-79 55.5-57.5 84T117 295zm100 0q0-52 21-92t53-63 76-37.5T450 83t80-5q52 0 99 8.5t95.5 30 77.5 66T831 291v213q-122 18-251 18-44 0-86.5-4t-95-18.5-90.5-38-64.5-66.5T217 295z"/><glyph unicode="b" horiz-adv-x="1112" d="M154 293v1085h102V963q133 49 281 49 57 0 108-9t104.5-29.5 96-59T922 822t52.5-134.5T993 506q0-94-16-172t-42-131-63.5-93.5-76-63.5-84-37.5-83-19.5-77.5-5q-74 0-135.5 13.5T314 32t-71 50.5-47 57.5-26 59.5-13 53-3 40.5zm102-4q0-89 71-150t224-61q49 0 90 7.5t89.5 34 82 71 56 125.5T891 506q0 220-90 314.5T537 915q-152 0-281-55V289z"/><glyph unicode="c" horiz-adv-x="946" d="M121 498q0 103 19.5 185.5T195 821t79 93.5 98.5 59T478 1003t108 9q137 0 288-54v-98q-141 53-278 53-180 0-277.5-96.5T221 498q0-115 26.5-196.5t77-129 117-69T596 82q145 0 278 53V37Q735-16 586-16q-69 0-130 12T331.5 42.5 223 132t-73.5 149T121 498z"/><glyph unicode="d" horiz-adv-x="1118" d="M127 506q0 120 27.5 211.5t71 146 105 88.5T452 998t130 12q152 0 282-47v413h101V293q0-30-6-62t-30.5-79T864 70 747 9.5 567-16q-58 0-111 10T340.5 37.5 233 125t-75.5 152.5T127 506zm102 0q0-109 22.5-190T307 190.5t81-71 89-34 90-7.5q153 0 225 61t72 150v571q-132 55-282 55-172 0-262.5-95T229 506z"/><glyph unicode="e" d="M125 477q0 39 3.5 79.5t15.5 95 31 102 53.5 96 79 83 111.5 56 148 21.5q68 0 126-16t99-41.5 74-62.5 54-73.5 36-81.5 22.5-79 11.5-72.5 5-56 0-35.5v-23l-.5-15-1-8.5-.5-5.5v-2H229q3-47 19-88Q288 84 604 84q196 0 324 70V49Q793-14 596-14q-72 0-135.5 12.5t-127 47-108 88T153 275t-28 202zm104 51h662q0 17-1.5 37.5t-9 60-19.5 75-37 76-58.5 69.5-86.5 48-118 19q-158 0-241-100t-91-285z"/><glyph unicode="f" horiz-adv-x="647" d="M82 903v90h158v90q0 67 13 120t32 86.5 48.5 57.5 53.5 35.5 57.5 18 50 7.5 40.5 1q54 0 108-14v-90q-45 10-92 10-34 0-54-1.5t-53.5-14-52.5-35-34-69-15-112.5v-90h295v-90H342V0H240v903H82z"/><glyph unicode="g" horiz-adv-x="1069" d="M117 504q0 92 15.5 167.5t41 127 61.5 91 73.5 62 82 37 81 19 75.5 4.5q101 0 177-25.5t115-60 62.5-80.5 29-76.5T936 711V-53q0-338-430-338-143 0-275 33v96q136-33 263-33 85 0 148.5 14t99.5 36 58 55 29 64 7 69V68Q697 16 559 16q-66 0-123.5 11t-118 43.5-103 84.5-70 141.5T117 504zm102 0q0-99 20.5-172.5t52-115 78.5-66 90.5-32T559 111q144 0 277 59v545q0 38-15 72.5T774 852t-90 48-137 18q-47 0-86.5-7T374 878t-79-68.5-54-121T219 504z"/><glyph unicode="h" horiz-adv-x="1124" d="M168 0v1376h102V932q185 80 342 80 180 0 277.5-103T987 608V0H887v608q0 155-72 228t-215 73q-160 0-330-75V0H168z"/><glyph unicode="i" horiz-adv-x="450" d="M168 1178v151h113v-151H168zM174 0v993h100V0H174z"/><glyph unicode="j" horiz-adv-x="462" d="M-6-297q109 0 161 47.5T207-86V993h100V-49q0-72-12-127.5T260.5-269 210-330.5 145-368t-72.5-18-78.5-5v94zm207 1475v151h112v-151H201z"/><glyph unicode="k" horiz-adv-x="972" d="M166 0v1376h102V463l496 530h137L477 543 956 0H821L410 471 268 319V0H166z"/><glyph unicode="l" horiz-adv-x="471" d="M184 0v1376h103V0H184z"/><glyph unicode="m" horiz-adv-x="1771" d="M168 0v907q204 105 403 105 181 0 273-103 197 103 393 103 176 0 272.5-93t96.5-272V0h-103v647q0 58-12.5 102.5t-42 82T1364 889t-133 20q-159 0-328-78 35-81 35-184V0H836v647q0 58-13 102.5t-43 82-86 57.5-135 20q-145 0-289-61V0H168z"/><glyph unicode="n" horiz-adv-x="1126" d="M154 0v905q76 40 187.5 73.5T580 1012q185 0 285-92.5T965 647V0H862v647q0 58-14 103t-45.5 82-90.5 57-143 20q-155 0-315-63V0H154z"/><glyph unicode="o" horiz-adv-x="1144" d="M109 498q0 122 28.5 215t73 148.5T318 952t124 47.5 131 12.5 131-12.5T828 952t108-90.5 73.5-148.5 28.5-215-28.5-215T936 134.5 828 44 704-3.5 573-16 442-3.5 318 44t-107.5 90.5-73 148.5T109 498zm100 0q0-115 26-197.5T310 170t114-70 149-22q175 0 270 98t95 322-95 322-270 98q-84 0-149-22t-114-70-75-130.5T209 498z"/><glyph unicode="p" horiz-adv-x="1114" d="M154-377V702q0 20 3 41.5t13 53 26 59.5 47 57.5 71 50.5 101.5 34.5T551 1012q58 0 111-10.5t115.5-44T885 869t75.5-153.5T991 487q0-120-27.5-211T893 130.5 788.5 42t-122-46T537-16q-147 0-283 49v-410H154zm100 512q125-55 283-55 173 0 262.5 94T889 489q0 109-22.5 190T811 804.5t-81 71-89 34.5-90 8q-153 0-225-62t-72-149V135z"/><glyph unicode="q" horiz-adv-x="1116" d="M117 487q0 130 30.5 228.5T223 869t107.5 88.5 115.5 44 111 10.5q103 0 180.5-25.5t117.5-61 64-82.5 29.5-79 5.5-62V-377H854V33Q718-16 573-16q-69 0-129.5 12T321 42t-105.5 88.5-71 145.5T117 487zm102 2q0-221 89.5-315T573 80q156 0 281 55v572q0 87-72 149t-225 62q-49 0-90-8t-89-34.5-81-71T241.5 679 219 489z"/><glyph unicode="r" horiz-adv-x="651" d="M152 0v915q41 18 96 36t161 38 209 21v-99q-174-4-366-61V0H152z"/><glyph unicode="s" horiz-adv-x="868" d="M102 55v107q149-78 308-78 119 0 190.5 44.5T672 258q0 60-31 101t-80.5 62.5-109.5 38-120.5 35-110 44.5-80.5 75.5T109 735q0 55 19 103t58 88 106 63 154 23q130 0 269-60V852q-124 61-258 61-108 0-177-43.5T211 735q0-43 24-74t64-48 90.5-33.5 103-29 103-36T686 461t64-82 24-121q0-124-93-199T414-16q-170 0-312 71z"/><glyph unicode="t" horiz-adv-x="673" d="M51 903v90h160v281h102V993h287v-90H313V246q0-94 45.5-130T483 80q63 0 121 20V4q-70-18-133-18-260 0-260 256v661H51z"/><glyph unicode="u" horiz-adv-x="1142" d="M152 412v581h102V406q0-328 311-328 312 0 312 328v587h102V412q0-205-108.5-315.5T565-14Q367-14 259.5 96.5T152 412z"/><glyph unicode="v" horiz-adv-x="1009" d="M51 993h109l344-866 344 866h108L555 0H453q-75 182-211 520T51 993z"/><glyph unicode="w" horiz-adv-x="1531" d="M55 993h109l289-848 264 848h96l268-848q54 164 157.5 465.5T1370 993h107L1133 0h-103L766 842 502 0H401z"/><glyph unicode="x" horiz-adv-x="1003" d="M70 0l364 502L80 993h119q50-69 148.5-206.5T496 580l295 413h124L557 500q71-99 205-282T922 0H801L496 426Q346 212 193 0H70z"/><glyph unicode="y" horiz-adv-x="987" d="M68 993h110q22-59 326-860l317 860h109L514-119Q412-391 211-391q-49 0-94 18v94q36-18 84-18 37 0 69 14.5t53 35 41.5 54.5 32.5 61.5T426.5-63 455 0z"/><glyph unicode="z" horiz-adv-x="935" d="M100 0v90q572 775 598 811H117v92h706v-88L223 90h608V0H100z"/><glyph unicode="{" horiz-adv-x="686" d="M158 541v67q133 61 133 172v318q0 151 69.5 235t206.5 84v-96q-174-3-174-191V780q0-119-127-207 127-88 127-204V18q0-183 174-190v-94q-137 0-206.5 85T291 51v318q0 111-133 172z"/><glyph unicode="|" horiz-adv-x="714" d="M305-252v1626h101V-252H305z"/><glyph unicode="}" horiz-adv-x="681" d="M137-172q174 6 174 190v351q0 117 129 204-129 87-129 207v350q0 188-174 191v96q137 0 207-84t70-235V780q0-111 133-172v-67q-133-61-133-172V51q0-147-70-232t-207-85v94z"/><glyph unicode="~" horiz-adv-x="1013" d="M166 557q70 107 168 107 42 0 91-20.5t86.5-45.5 85.5-45.5 89-20.5q90 0 158 105 4-58 4-82-68-109-162-109-42 0-90 20.5T511 512t-84.5 45.5T338 578q-99 0-168-103z"/><glyph unicode="¡" horiz-adv-x="618" d="M256 834v161h113V834H256zm6-1156l8 977h82l10-977H262z"/><glyph unicode="¢" horiz-adv-x="952" d="M119 684q0 114 24.5 202.5t64 143.5 96 92 112.5 52.5 121 19.5v164h69v-162q136-3 266-51v-98q-133 51-266 51V268q133 0 266 54V221q-130-48-266-51V0h-69v172q-65 5-121 20.5t-112.5 52-96 91.5-64 144T119 684zm102 0q0-385 316-412v824q-73-7-128.5-32T310 991.5t-66-125T221 684z"/><glyph unicode="£" horiz-adv-x="1091" d="M98-23V80q79 36 178 39v454H98v93h178v309q0 70 22.5 132t70 116 131.5 86 196 32q156 0 299-75v-103q-137 80-290 80-75 0-133.5-16t-94.5-41.5-59-61-32-71-9-74.5V666h440v-93H377V117q63-5 209-34.5T817 53q98 0 178 29V-20q-80-29-178-29-90 0-257.5 33.5T307 18Q191 18 98-23z"/><glyph unicode="¥" horiz-adv-x="1167" d="M45 1317h125l418-621 418 621h124L684 657h287v-86H639V362h332v-86H639V0H537v276H207v86h330v209H207v86h285z"/><glyph unicode="§" horiz-adv-x="1073" d="M123 731q0 88 57 142.5T330 946q-101 56-101 166 0 105 94 176.5t275 71.5q153 0 291-55v-101q-139 60-283 60-53 0-100-8.5t-88.5-26T352 1179t-24-77q0-55 57.5-93T604 930q52-13 88.5-24.5t82-29.5 76-39.5 58-51 41-68.5 13.5-86q0-76-54.5-131.5T762 424q88-64 88-170 0-113-99-183.5T463 0Q267 0 127 63v103q136-70 330-70 121 0 204.5 50.5T745 268q0 64-58.5 107.5T471 459q-65 16-108.5 30t-93 37-78.5 49.5-48.5 66.5-19.5 89zm100 0q0-55 54-92.5T469 565q158-41 227-76 79 13 122.5 50.5T862 631q0 66-53.5 110T610 823q-129 33-200 60-85-8-136-47.5T223 731z"/><glyph unicode="¨" horiz-adv-x="720" d="M150 1167v160h110v-160H150zm303 0v160h110v-160H453z"/><glyph unicode="©" horiz-adv-x="1550" d="M96 657q0 137 54 262.5t145 216 216.5 144T774 1333t262.5-53.5 216-144 144-216T1450 657q0-183-90.5-338t-246-245T774-16q-137 0-262.5 53T295 180 150 395 96 657zm51 0q0-169 84.5-313t229-227.5T774 33t313 83.5T1315 344t84 313-84 313.5-228 229-313 84.5-313.5-84.5-229-229T147 657zm281 0q0 208 96.5 306t266.5 98q112 0 233-43v-57q-118 43-227 43-310 0-310-347 0-346 312-346 118 0 225 43v-57q-105-41-233-41-170 0-266.5 96.5T428 657z"/><glyph unicode="ª" horiz-adv-x="753" d="M135 977q0 44 19.5 77.5T202 1106t65.5 29 67 14.5 58.5 3.5h41q28 0 63.5-5t37.5-5q0 88-45 131t-138 43q-73 0-157-25v56q70 24 159 24 123 0 180.5-57.5T592 1143V971q0-42-17-74t-41-49-57-28-58.5-14-51.5-3-53 3.5-60.5 14.5-58.5 29-42.5 51-17.5 76zm58 0q0-37 16.5-63t45-38 55.5-17 57-5q29 0 55.5 5t53.5 17 43 37 16 60v119q-1 0-36.5 5t-68.5 5q-237 0-237-125z"/><glyph unicode="«" horiz-adv-x="1101" d="M74 522l364 393h137L199 522l376-391H438zm401 0l365 393h135L600 522l375-391H840z"/><glyph unicode="¬" horiz-adv-x="1185" d="M178 541v94h836V330h-94v211H178z"/><glyph unicode="­" horiz-adv-x="948" d="M147 532v99h646v-99H147z"/><glyph unicode="®" horiz-adv-x="1550" d="M96 657q0 137 54 262.5t145 216 216.5 144T774 1333t262.5-53.5 216-144 144-216T1450 657q0-183-90.5-338t-246-245T774-16q-137 0-262.5 53T295 180 150 395 96 657zm51 0q0-169 84.5-313t229-227.5T774 33t313 83.5T1315 344t84 313-84 313.5-228 229-313 84.5-313.5-84.5-229-229T147 657zm381-391v783h287q125 0 194.5-57.5T1079 825q0-48-14-86.5t-36-63-50.5-41.5-54-24.5T874 600l232-334h-70L813 592H588V266h-60zm60 383h223q207 0 207 172T811 993H588V649z"/><glyph unicode="¯" horiz-adv-x="768" d="M158 1192v76h450v-76H158z"/><glyph unicode="°" horiz-adv-x="759" d="M150 1135q0 106 60.5 167.5T377 1364q104 0 165.5-61.5T604 1135q0-107-61-168.5T377 905q-106 0-166.5 61.5T150 1135zm51 0q0-86 45.5-132.5T377 956q83 0 128.5 46.5T551 1135q0 85-45.5 130.5T377 1311q-85 0-130.5-45.5T201 1135z"/><glyph unicode="±" horiz-adv-x="1110" d="M195 45v84h712V45H195zm0 526v86h313v312h86V657h313v-86H594V258h-86v313H195z"/><glyph unicode="´" horiz-adv-x="493" d="M123 1167l160 281h114l-196-281h-78z"/><glyph unicode="µ" horiz-adv-x="1167" d="M174-410V993h102V348q0-59 13.5-103.5t45-82 90.5-57T569 86q160 0 314 64v843h102V90q-73-39-185.5-71.5T559-14q-116 0-194.5 41.5T276 117v-527H174z"/><glyph unicode="¶" horiz-adv-x="868" d="M90 954q0 194 116 295t337 101h159V31h-94v524h-65q-221 0-337 101.5T90 954z"/><glyph unicode="·" horiz-adv-x="536" d="M213 481v162h111V481H213z"/><glyph unicode="¸" horiz-adv-x="555" d="M117-289L317-6h78L236-289H117z"/><glyph unicode="º" horiz-adv-x="815" d="M147 1087q0 69 16 121.5t41 83.5 61 50.5 70 26.5 73 7q38 0 72-7t69-26.5 60-50.5 41-83.5 16-121.5q0-84-23-143t-63-88-81.5-41-90.5-12q-39 0-73 6.5T265 835t-61 49.5-41 82.5-16 120zm56 0q0-231 205-231 96 0 148 54t52 177q0 126-52 181t-148 55q-98 0-151.5-55T203 1087z"/><glyph unicode="»" d="M123 129l373 393q-63 65-186.5 195.5T123 913h135q62-64 182.5-195T623 522L258 129H123zm399 0q56 58 118.5 123.5T779 398t118 124q-49 51-176.5 185T522 913h137q38-41 166-179t199-212L659 129H522z"/><glyph unicode="¿" horiz-adv-x="899" d="M125 0q0 64 17 114.5t44 83.5 59.5 61.5 65.5 58 60 64 44 87.5 17 121v65h100v-73q0-76-17-136t-43.5-98.5-59-70.5-65.5-59.5-59.5-56T244 92 227 0q0-115 76.5-175.5T510-236q74 0 147 21.5T778-164v-108q-1 0-21-9.5t-42-18-53.5-18.5-70-16-77.5-6q-45 0-90 7t-101 29-98 57.5-71 99.5T125 0zm301 831v162h113V831H426z"/><glyph unicode="À" horiz-adv-x="1282" d="M51 0q90 219 268.5 658.5T588 1317h100L1223 0h-109q-31 74-86.5 215T946 418H328L162 0H51zm316 514h542l-272 680zm65 1231h115l160-283h-78z"/><glyph unicode="Á" horiz-adv-x="1282" d="M51 0q90 219 268.5 658.5T588 1317h100L1223 0h-109q-31 74-86.5 215T946 418H328L162 0H51zm316 514h542l-272 680zm204 948l160 283h115l-197-283h-78z"/><glyph unicode="Â" horiz-adv-x="1282" d="M51 0q90 219 268.5 658.5T588 1317h100L1223 0h-109q-31 74-86.5 215T946 418H328L162 0H51zm316 514h542l-272 680zm16 948q34 47 103.5 141.5T590 1745h94l209-283h-98q-7 10-158 221l-160-221h-94z"/><glyph unicode="Ã" horiz-adv-x="1282" d="M51 0q90 219 268.5 658.5T588 1317h100L1223 0h-109q-31 74-86.5 215T946 418H328L162 0H51zm316 514h542l-272 680zm6 1042q36 47 66.5 69t66.5 22q32 0 70.5-16.5t69-37 68-37T782 1540q64 0 123 82 0-12 1-38t1-38q-34-50-64-72t-65-22q-41 0-91.5 26t-99.5 52-87 26q-70 0-123-79z"/><glyph unicode="Ä" horiz-adv-x="1282" d="M51 0q90 219 268.5 658.5T588 1317h100L1223 0h-109q-31 74-86.5 215T946 418H328L162 0H51zm316 514h542l-272 680zm63 948v160h111v-160H430zm305 0v160h111v-160H735z"/><glyph unicode="Å" horiz-adv-x="1282" d="M51 0q90 219 268.5 658.5T588 1317h100L1223 0h-109q-31 74-86.5 215T946 418H328L162 0H51zm316 514h542l-272 680zm100 1102q0 84 44 129t126 45q83 0 126.5-44.5T807 1616q0-86-43.5-131T637 1440q-82 0-126 45t-44 131zm59 0q0-63 26.5-92t84.5-29q59 0 86 29t27 92q0 62-27.5 91.5T637 1737t-84.5-29.5T526 1616z"/><glyph unicode="Æ" horiz-adv-x="1843" d="M8 0l823 1317h883v-96h-698V711h614v-99h-614V96h698V0H913v418H383L125 0H8zm436 518h469v699h-32z"/><glyph unicode="Ç" horiz-adv-x="1212" d="M125 657q0 177 44 309t125.5 212.5 191 119.5 247.5 39q204 0 395-75v-97q-199 76-383 76-121 0-214-31.5t-163-99T261.5 929 225 657t37-271.5 107-180 162.5-97T745 78q195 0 383 72V53Q957-10 780-16L625-289H510L702-18q-131 5-235 45.5t-181.5 120-119 208.5T125 657z"/><glyph unicode="È" horiz-adv-x="1083" d="M160 0v1317h815v-94H260V713h631v-99H260V96h715V0H160zm211 1745h112l160-281h-78z"/><glyph unicode="É" horiz-adv-x="1083" d="M160 0v1317h815v-94H260V713h631v-99H260V96h715V0H160zm329 1464l160 281h115l-197-281h-78z"/><glyph unicode="Ê" horiz-adv-x="1083" d="M158 0v1317h817v-96H260V711h631v-97H260V94h715V0H158zm153 1462l209 283h92q150-201 209-283h-98q-7 10-158 221-139-194-159-221h-95z"/><glyph unicode="Ë" horiz-adv-x="1083" d="M160 0v1317h815v-94H260V713h631v-99H260V96h715V0H160zm207 1464v160h110v-160H367zm305 0v160h110v-160H672z"/><glyph unicode="Ì" horiz-adv-x="432" d="M10 1745h115l160-281h-78zM160 0v1317h100V0H160z"/><glyph unicode="Í" horiz-adv-x="432" d="M137 1464l160 281h115l-197-281h-78zM160 0v1317h100V0H160z"/><glyph unicode="Î" horiz-adv-x="432" d="M-43 1462q29 42 63.5 89.5t76 104T162 1745h94l209-283h-98q-7 10-158 221L49 1462h-92zM158 0v1317h102V0H158z"/><glyph unicode="Ï" horiz-adv-x="432" d="M2 1464v160h113v-160H2zM160 0v1317h100V0H160zm147 1464v160h111v-160H307z"/><glyph unicode="Ð" horiz-adv-x="1400" d="M98 614v84h160v619h399q623 0 623-660Q1280 0 657 0H258v614H98zM360 94h291q271 0 400 137.5T1180 657q0 289-129 427.5T651 1223H360V698h385v-84H360V94z"/><glyph unicode="Ñ" horiz-adv-x="1370" d="M158 0v1317h114l830-1167v1167h102V0h-112L260 1165V0H158zm262 1556q66 91 133 91 32 0 70.5-16.5t69-37 68-37T829 1540q65 0 121 82l4-76q-36-50-66-72t-65-22q-48 0-139.5 52T545 1556q-65 0-123-79 0 13-1 39t-1 40z"/><glyph unicode="Ò" horiz-adv-x="1472" d="M125 659q0 678 606 678 608 0 608-678 0-677-608-677-606 0-606 677zm100 0q0-296 122-438.5T731 78q263 0 384.5 142.5T1237 659q0 295-121.5 438.5T731 1241q-261 0-383.5-143.5T225 659zm299 1086h115l160-281h-78z"/><glyph unicode="Ó" horiz-adv-x="1472" d="M125 659q0 678 606 678 608 0 608-678 0-677-608-677-606 0-606 677zm100 0q0-296 122-438.5T731 78q263 0 384.5 142.5T1237 659q0 295-121.5 438.5T731 1241q-261 0-383.5-143.5T225 659zm428 805l160 281h117l-199-281h-78z"/><glyph unicode="Ô" horiz-adv-x="1472" d="M123 659q0 676 608 676 606 0 606-676 0-675-606-675-608 0-608 675zm102 0q0-297 121.5-439T731 78q262 0 384 142t122 439q0 295-122 437.5T731 1239q-263 0-384.5-142.5T225 659zm250 803q34 47 103.5 141.5T682 1745h94l209-283h-98q-7 10-158 221l-160-221h-94z"/><glyph unicode="Õ" horiz-adv-x="1472" d="M123 659q0 676 608 676 606 0 606-676 0-675-606-675-608 0-608 675zm102 0q0-297 121.5-439T731 78q262 0 384 142t122 439q0 295-122 437.5T731 1239q-263 0-384.5-142.5T225 659zm236 897q66 91 133 91 32 0 70.5-16.5t69-37 68-37T870 1540q62 0 121 82l4-76q-36-50-66-72t-65-22q-48 0-139.5 52T586 1556q-65 0-123-79 0 13-1 39t-1 40z"/><glyph unicode="Ö" horiz-adv-x="1472" d="M125 659q0 678 606 678 608 0 608-678 0-677-608-677-606 0-606 677zm100 0q0-296 122-438.5T731 78q263 0 384.5 142.5T1237 659q0 295-121.5 438.5T731 1241q-261 0-383.5-143.5T225 659zm299 805v160h111v-160H524zm303 0v160h111v-160H827z"/><glyph unicode="Ø" horiz-adv-x="1472" d="M125 659q0 678 606 678 247 0 397-116l80 96h109l-129-158q151-168 151-500 0-677-608-677-250 0-397 114L256 0H145l127 158Q125 321 125 659zm100 0q0-284 115-423l725 909q-122 96-334 96-261 0-383.5-143.5T225 659zm172-487q122-94 334-94 263 0 384.5 142.5T1237 659q0 283-115 422z"/><glyph unicode="Ù" horiz-adv-x="1353" d="M150 518v799h102V514q0-219 106-329.5T670 74q208 0 314 110.5T1090 514v803h102V518q0-260-134.5-397T670-16q-251 0-385.5 137T150 518zm335 1227h115q30-56 91-162.5t69-120.5h-78z"/><glyph unicode="Ú" horiz-adv-x="1353" d="M150 518v799h102V514q0-219 106-329.5T670 74q208 0 314 110.5T1090 514v803h102V518q0-260-134.5-397T670-16q-251 0-385.5 137T150 518zm444 944q8 14 69 120.5t91 162.5h116q-14-19-86-123.5T672 1462h-78z"/><glyph unicode="Û" horiz-adv-x="1353" d="M150 518v799h102V514q0-219 106-329.5T670 74q208 0 314 110.5T1090 514v803h102V518q0-260-134.5-397T670-16q-251 0-385.5 137T150 518zm266 944l209 283h92q150-201 209-283h-99q-33 47-157 221-113-157-160-221h-94z"/><glyph unicode="Ü" horiz-adv-x="1353" d="M150 518v799h102V514q0-219 106-329.5T670 74q208 0 314 110.5T1090 514v803h102V518q0-260-134.5-397T670-16q-251 0-385.5 137T150 518zm313 944v160h110v-160H463zm305 0v160h111v-160H768z"/><glyph unicode="Þ" d="M158 2v1315h100v-213h293q215 0 331.5-106T999 702q0-192-118.5-294.5T551 305H258V2H158zm100 399h281q81 0 143 16t102 43 66 66 36.5 82 10.5 94q0 304-358 304H258V401z"/><glyph unicode="ß" horiz-adv-x="1163" d="M158 0v913q0 104 25 187.5t76 147 135 98 196 34.5q107 0 187.5-29.5t126-80T971 1161t22-125q0-68-25.5-128T905 811t-74-59-65-25q26-1 60.5-13.5T902 674t75-65 57-97.5 23-128.5q0-189-144.5-286T502 0v90q213 0 334.5 75T958 387q0 78-35.5 135.5t-97.5 90-136 48T528 676v90q176 0 269.5 65.5T891 1030q0 126-78.5 191T590 1286q-330 0-330-379V0H158z"/><glyph unicode="à" horiz-adv-x="1054" d="M117 295q0 63 22 114.5t55.5 84.5 81 57 90 36 92.5 19 78 8.5 56 1.5q127 0 237-20 0 158-79.5 235.5T502 909q-132 0-283-45v99q139 47 289 47 218 0 321-105t103-311V291q0-65-20.5-116.5t-56.5-83-76.5-54-89-33T604-10t-74-4-76 4.5T366 6t-91.5 34-79 55.5-57.5 84T117 295zm100 0q0-52 21-92t53-63 76-37.5T450 83t80-5q52 0 99 8.5t95.5 30 77.5 66T831 291v213q-122 18-251 18-44 0-86.5-4t-95-18.5-90.5-38-64.5-66.5T217 295zm125 1153h115l159-283h-77z"/><glyph unicode="á" horiz-adv-x="1054" d="M117 295q0 63 22 114.5t55.5 84.5 81 57 90 36 92.5 19 78 8.5 56 1.5q127 0 237-20 0 158-79.5 235.5T502 909q-132 0-283-45v99q139 47 289 47 218 0 321-105t103-311V291q0-65-20.5-116.5t-56.5-83-76.5-54-89-33T604-10t-74-4-76 4.5T366 6t-91.5 34-79 55.5-57.5 84T117 295zm100 0q0-52 21-92t53-63 76-37.5T450 83t80-5q52 0 99 8.5t95.5 30 77.5 66T831 291v213q-122 18-251 18-44 0-86.5-4t-95-18.5-90.5-38-64.5-66.5T217 295zm248 870l160 283h114l-196-283h-78z"/><glyph unicode="â" horiz-adv-x="1054" d="M117 295q0 63 22 114.5t55.5 84.5 81 57 90 36 92.5 19 78 8.5 56 1.5q127 0 237-20 0 158-79.5 235.5T502 909q-132 0-283-45v99q139 47 289 47 218 0 321-105t103-311V291q0-65-20.5-116.5t-56.5-83-76.5-54-89-33T604-10t-74-4-76 4.5T366 6t-91.5 34-79 55.5-57.5 84T117 295zm100 0q0-52 21-92t53-63 76-37.5T450 83t80-5q52 0 99 8.5t95.5 30 77.5 66T831 291v213q-122 18-251 18-44 0-86.5-4t-95-18.5-90.5-38-64.5-66.5T217 295zm62 870q115 154 208 283h95l209-283h-99q-25 37-78.5 110.5T535 1386l-160-221h-96z"/><glyph unicode="ã" horiz-adv-x="1054" d="M117 295q0 63 22 114.5t55.5 84.5 81 57 90 36 92.5 19 78 8.5 56 1.5q127 0 237-20 0 158-79.5 235.5T502 909q-132 0-283-45v99q139 47 289 47 218 0 321-105t103-311V291q0-65-20.5-116.5t-56.5-83-76.5-54-89-33T604-10t-74-4-76 4.5T366 6t-91.5 34-79 55.5-57.5 84T117 295zm100 0q0-52 21-92t53-63 76-37.5T450 83t80-5q52 0 99 8.5t95.5 30 77.5 66T831 291v213q-122 18-251 18-44 0-86.5-4t-95-18.5-90.5-38-64.5-66.5T217 295zm53 952q36 47 66 68.5t67 21.5q49 0 140-53t137-53q64 0 123 82 0-26 4-76-35-51-65.5-72.5T676 1143q-41 0-91.5 26t-100 52-87.5 26q-27 0-61.5-20.5T274 1167z"/><glyph unicode="ä" horiz-adv-x="1054" d="M117 295q0 63 22 114.5t55.5 84.5 81 57 90 36 92.5 19 78 8.5 56 1.5q127 0 237-20 0 158-79.5 235.5T502 909q-132 0-283-45v99q139 47 289 47 218 0 321-105t103-311V291q0-65-20.5-116.5t-56.5-83-76.5-54-89-33T604-10t-74-4-76 4.5T366 6t-91.5 34-79 55.5-57.5 84T117 295zm100 0q0-52 21-92t53-63 76-37.5T450 83t80-5q52 0 99 8.5t95.5 30 77.5 66T831 291v213q-122 18-251 18-44 0-86.5-4t-95-18.5-90.5-38-64.5-66.5T217 295zm109 870v160h110v-160H326zm305 0v160h110v-160H631z"/><glyph unicode="å" horiz-adv-x="1054" d="M117 295q0 63 22 114.5t55.5 84.5 81 57 90 36 92.5 19 78 8.5 56 1.5q127 0 237-20 0 158-79.5 235.5T502 909q-132 0-283-45v99q139 47 289 47 218 0 321-105t103-311V291q0-65-20.5-116.5t-56.5-83-76.5-54-89-33T604-10t-74-4-76 4.5T366 6t-91.5 34-79 55.5-57.5 84T117 295zm100 0q0-52 21-92t53-63 76-37.5T450 83t80-5q52 0 99 8.5t95.5 30 77.5 66T831 291v213q-122 18-251 18-44 0-86.5-4t-95-18.5-90.5-38-64.5-66.5T217 295zm141 1026q0 85 43.5 129.5T528 1495q82 0 126-45t44-129q0-85-44-130.5T528 1145q-83 0-126.5 45.5T358 1321zm58 0q0-63 26-92t86-29q57 0 84 29t27 92q0 121-111 121-59 0-85.5-29.5T416 1321z"/><glyph unicode="æ" horiz-adv-x="1808" d="M115 295q0 58 18 106t47.5 80.5 71 57T335 577t90.5 22.5T512 611t76 3q118 0 239-18 0 160-80 236.5T498 909q-136 0-281-45v99q139 47 287 47 159 0 251-58.5T885 776q98 234 375 234 86 0 156-24.5t114-61 77-88 49-97 25.5-97 11-78.5 1.5-52v-28l-.5-21-1-13.5-.5-8.5v-3H928q12-189 110.5-270.5T1327 86q168 0 301 68V49q-145-63-338-63-292 0-393 217-35-66-79-111t-94-67-96-30.5T526-14q-36 0-74 4.5T365 6t-91 33.5-79 55-58.5 84T115 295zm100 0q0-52 21-92t53-63 76-37.5T448 83t80-5q52 0 98.5 8.5t94.5 30 77 66T827 291v213q-122 18-249 18-37 0-72-3t-79-11-79.5-25-66.5-40.5-48.5-61.5-17.5-86zm713 233h661q0 19-1.5 41t-9 61.5-20 75-38 75T1461 848t-88 46.5-120 18.5q-312 0-325-385z"/><glyph unicode="ç" horiz-adv-x="946" d="M121 498q0 103 19.5 185.5T195 821t79 93.5 98.5 59T478 1003t108 9q137 0 288-54v-98q-141 53-278 53-180 0-277.5-96.5T221 498q0-115 26.5-196.5t77-129 117-69T596 82q145 0 278 53V37Q765-4 635-14L481-289H365L555-16q-55 3-103.5 13.5t-99.5 33T261 92t-72.5 93-50 134T121 498z"/><glyph unicode="è" d="M125 477q0 39 3.5 79.5t15.5 95 31 102 53.5 96 79 83 111.5 56 148 21.5q68 0 126-16t99-41.5 74-62.5 54-73.5 36-81.5 22.5-79 11.5-72.5 4.5-56 .5-35.5v-23l-.5-15-1-8.5-.5-5.5v-2H229q3-47 19-88Q288 84 604 84q196 0 324 70V49Q793-14 596-14q-72 0-135.5 12.5t-127 47-108 88T153 275t-28 202zm104 51h662q0 17-1.5 37.5t-9 60-19.5 75-37 76-58.5 69.5-86.5 48-118 19q-158 0-241-100t-91-285zm138 920h114l160-283h-78z"/><glyph unicode="é" d="M125 477q0 39 3.5 79.5t15.5 95 31 102 53.5 96 79 83 111.5 56 148 21.5q68 0 126-16t99-41.5 74-62.5 54-73.5 36-81.5 22.5-79 11.5-72.5 4.5-56 .5-35.5v-23l-.5-15-1-8.5-.5-5.5v-2H229q3-47 19-88Q288 84 604 84q196 0 324 70V49Q793-14 596-14q-72 0-135.5 12.5t-127 47-108 88T153 275t-28 202zm104 51h662q0 17-1.5 37.5t-9 60-19.5 75-37 76-58.5 69.5-86.5 48-118 19q-158 0-241-100t-91-285zm248 637q30 56 91 162.5t69 120.5h115l-197-283h-78z"/><glyph unicode="ê" d="M125 477q0 39 3.5 79.5t15.5 95 31 102 53.5 96 79 83 111.5 56 148 21.5q68 0 126-16t99-41.5 74-62.5 54-73.5 36-81.5 22.5-79 11.5-72.5 4.5-56 .5-35.5v-23l-.5-15-1-8.5-.5-5.5v-2H229q3-47 19-88Q288 84 604 84q196 0 324 70V49Q793-14 596-14q-72 0-135.5 12.5t-127 47-108 88T153 275t-28 202zm104 51h662q0 17-1.5 37.5t-9 60-19.5 75-37 76-58.5 69.5-86.5 48-118 19q-158 0-241-100t-91-285zm66 637q150 201 209 283h94l209-283h-98q-25 37-78.5 110.5T551 1386l-160-221h-96z"/><glyph unicode="ë" d="M125 477q0 39 3.5 79.5t15.5 95 31 102 53.5 96 79 83 111.5 56 148 21.5q68 0 126-16t99-41.5 74-62.5 54-73.5 36-81.5 22.5-79 11.5-72.5 4.5-56 .5-35.5v-23l-.5-15-1-8.5-.5-5.5v-2H229q3-47 19-88Q288 84 604 84q196 0 324 70V49Q793-14 596-14q-72 0-135.5 12.5t-127 47-108 88T153 275t-28 202zm104 51h662q0 17-1.5 37.5t-9 60-19.5 75-37 76-58.5 69.5-86.5 48-118 19q-158 0-241-100t-91-285zm117 637v160h111v-160H346zm305 0v160h111v-160H651z"/><glyph unicode="ì" horiz-adv-x="450" d="M23 1448h114q8-14 69-120.5t91-162.5h-78q-24 34-91 132T23 1448zM174 0v993h100V0H174z"/><glyph unicode="í" horiz-adv-x="450" d="M147 1165q8 14 69 120.5t91 162.5h117l-197-283h-80zM174 0v993h100V0H174z"/><glyph unicode="î" horiz-adv-x="450" d="M-29 1165q34 47 103.5 141.5T178 1448h94l209-283h-98q-25 37-78.5 110.5T225 1386L66 1165h-95zM174 0v993h100V0H174z"/><glyph unicode="ï" horiz-adv-x="450" d="M18 1165v160h111v-160H18zM174 0v993h100V0H174zm150 1165v160h110v-160H324z"/><glyph unicode="ð" horiz-adv-x="1153" d="M119 414q0 187 117.5 296T557 819q112 0 200-32.5T897 709q-16 296-182 430L467 999q-1 3-39 70 35 19 104.5 58t104.5 57q-101 55-231 55-44 0-87-6v96q43 6 91 6 195 0 329-92 38 20 105 58.5t88 50.5q11-18 37-68-12-7-162-92 199-186 199-590 0-313-111.5-465.5T557-16q-92 0-167 25T265.5 75t-83 97.5T134 289t-15 125zm102 0q0-40 7-80t29.5-87.5T315 163t98-60.5T557 78q44 0 80.5 7t78 25.5 73 55.5 58.5 92 42 141.5T905 596q-49 49-139.5 89T557 725q-160 0-248-81t-88-230z"/><glyph unicode="ñ" horiz-adv-x="1126" d="M152 0v905q204 105 426 105 185 0 285-92.5T963 647V0H862v647q0 262-295 262-161 0-313-65V0H152zm118 1247q36 47 66 68.5t67 21.5q41 0 91.5-26.5t99.5-53 86-26.5q64 0 123 82l4-76q-35-51-65.5-72.5T676 1143q-40 0-90.5 26T485 1221t-88 26q-26 0-60-20.5t-63-59.5q0 26-4 80z"/><glyph unicode="ò" horiz-adv-x="1144" d="M109 498q0 122 28.5 215t73 148.5T318 952t124 47.5 131 12.5 131-12.5T828 952t108-90.5 73.5-148.5 28.5-215-28.5-215T936 134.5 828 44 704-3.5 573-16 442-3.5 318 44t-107.5 90.5-73 148.5T109 498zm100 0q0-115 26-197.5T310 170t114-70 149-22q175 0 270 98t95 322-95 322-270 98q-84 0-149-22t-114-70-75-130.5T209 498zm178 950h115l160-281h-78z"/><glyph unicode="ó" horiz-adv-x="1144" d="M109 498q0 122 28.5 215t73 148.5T318 952t124 47.5 131 12.5 131-12.5T828 952t108-90.5 73.5-148.5 28.5-215-28.5-215T936 134.5 828 44 704-3.5 573-16 442-3.5 318 44t-107.5 90.5-73 148.5T109 498zm100 0q0-115 26-197.5T310 170t114-70 149-22q175 0 270 98t95 322-95 322-270 98q-84 0-149-22t-114-70-75-130.5T209 498zm297 669l160 281h114l-196-281h-78z"/><glyph unicode="ô" horiz-adv-x="1144" d="M106 496q0 122 28.5 215.5t74 149 109 90 124.5 47 131 12.5q57 0 108-9t105.5-29.5T885 912t79-94 54.5-137 19.5-185q0-102-19.5-184T964 176t-79-92.5-98.5-59T681-5t-108-9q-70 0-131 12T317 44.5 208 134t-73.5 147.5T106 496zm103 0q0-420 364-420 174 0 268.5 98.5T936 496q0 224-94.5 323T573 918q-364 0-364-422zm108 669q34 47 103.5 141.5T524 1448h94l209-283h-98q-7 10-158 221l-159-221h-95z"/><glyph unicode="õ" horiz-adv-x="1144" d="M106 496q0 122 28.5 215.5t74 149 109 90 124.5 47 131 12.5q57 0 108-9t105.5-29.5T885 912t79-94 54.5-137 19.5-185q0-102-19.5-184T964 176t-79-92.5-98.5-59T681-5t-108-9q-70 0-131 12T317 44.5 208 134t-73.5 147.5T106 496zm103 0q0-420 364-420 174 0 268.5 98.5T936 496q0 224-94.5 323T573 918q-364 0-364-422zm94 751q34 46 65 68t68 22q40 0 90-26.5t99.5-53T713 1231q62 0 121 82l4-76q-35-51-65.5-72.5T707 1143q-48 0-140 52t-139 52q-26 0-60-20.5t-63-59.5q0 13-1 40t-1 40z"/><glyph unicode="ö" horiz-adv-x="1144" d="M109 498q0 122 28.5 215t73 148.5T318 952t124 47.5 131 12.5 131-12.5T828 952t108-90.5 73.5-148.5 28.5-215-28.5-215T936 134.5 828 44 704-3.5 573-16 442-3.5 318 44t-107.5 90.5-73 148.5T109 498zm100 0q0-115 26-197.5T310 170t114-70 149-22q175 0 270 98t95 322-95 322-270 98q-84 0-149-22t-114-70-75-130.5T209 498zm156 669v160h112v-160H365zm305 0v160h110v-160H670z"/><glyph unicode="ø" horiz-adv-x="1157" d="M113 500q0 121 28.5 214T215 862t108 90 124.5 47.5T578 1012q179 0 294-86l56 67h110L934 866q108-124 108-366 0-122-28.5-216t-73-149.5T833 44 709-3.5 578-16q-180 0-295 84L227 0H117l104 129Q113 257 113 500zm100 0q0-191 76-293l522 645q-88 66-233 66-175 0-270-98t-95-320zm131-359q85-63 234-63 175 0 269.5 98.5T942 500q0 181-76 288z"/><glyph unicode="ù" horiz-adv-x="1142" d="M152 412v581h102V406q0-328 311-328 312 0 312 328v587h102V412q0-205-108.5-315.5T565-14Q367-14 259.5 96.5T152 412zm221 1036h114l160-283h-78z"/><glyph unicode="ú" horiz-adv-x="1142" d="M152 412v581h102V406q0-328 311-328 312 0 312 328v587h102V412q0-205-108.5-315.5T565-14Q367-14 259.5 96.5T152 412zm323 753q30 56 91 162.5t69 120.5h115l-197-283h-78z"/><glyph unicode="û" horiz-adv-x="1142" d="M152 412v581h102V406q0-328 311-328 312 0 312 328v587h102V412q0-205-108.5-315.5T565-14Q367-14 259.5 96.5T152 412zm157 753l209 283h94q59-82 209-283h-98q-151 210-158 221l-159-221h-97z"/><glyph unicode="ü" horiz-adv-x="1142" d="M152 412v581h102V406q0-328 311-328 312 0 312 328v587h102V412q0-205-108.5-315.5T565-14Q367-14 259.5 96.5T152 412zm206 753v160h111v-160H358zm304 0v160h112v-160H662z"/><glyph unicode="þ" horiz-adv-x="1091" d="M154-375v1743h102V952q133 49 281 49 69 0 129.5-12T789 943t105.5-88.5 71-145.5T993 498t-27.5-211-71-145.5-105.5-89T666.5 6 537-6Q389-6 256 43v-418H154zm102 518q129-55 281-55 173 0 263.5 94.5T891 498q0 219-90.5 314T537 907q-155 0-281-57V143z"/><glyph unicode="ÿ" horiz-adv-x="987" d="M68 993h110q22-59 326-860l317 860h109L514-119Q412-391 211-391q-49 0-94 18v94q36-18 84-18 37 0 69 14.5t53 35 41.5 54.5 32.5 61.5T426.5-63 455 0zm227 172v160h113v-160H295zm305 0v160h111v-160H600z"/><glyph unicode="ˆ" horiz-adv-x="774" d="M135 1165l209 283h94q59-82 209-283h-98q-26 37-79 110.5T391 1386l-160-221h-96z"/><glyph unicode="˜" horiz-adv-x="911" d="M180 1247q34 47 64 68.5t67 21.5q41 0 91.5-26.5t100-53T590 1231q65 0 121 82l4-76q-35-51-65.5-72.5T584 1143q-40 0-90.5 26T393 1221t-88 26q-64 0-123-80 0 13-1 40t-1 40z"/><glyph horiz-adv-x="895"/><glyph horiz-adv-x="1790"/><glyph horiz-adv-x="895"/><glyph horiz-adv-x="1790"/><glyph horiz-adv-x="596"/><glyph horiz-adv-x="447"/><glyph horiz-adv-x="298"/><glyph horiz-adv-x="298"/><glyph horiz-adv-x="223"/><glyph horiz-adv-x="358"/><glyph horiz-adv-x="99"/><glyph unicode="‐" horiz-adv-x="948" d="M147 532v99h646v-99H147z"/><glyph unicode="‑" horiz-adv-x="948" d="M147 532v99h646v-99H147z"/><glyph unicode="‒" horiz-adv-x="948" d="M147 532v99h646v-99H147z"/><glyph unicode="–" horiz-adv-x="1210" d="M133 524v88h934v-88H133z"/><glyph unicode="—" horiz-adv-x="1853" d="M147 524v94h1549v-94H147z"/><glyph unicode="‘" horiz-adv-x="466" d="M98 1337h115l133-379H246z"/><glyph unicode="’" horiz-adv-x="464" d="M98 958l133 379h115L201 958H98z"/><glyph unicode="‚" horiz-adv-x="522" d="M133-209l133 377h113L233-209H133z"/><glyph unicode="“" horiz-adv-x="731" d="M98 1335h115l133-377H244q-104 266-146 377zm269 0h114l133-377H514z"/><glyph unicode="”" horiz-adv-x="722" d="M98 958l133 379h115L201 958H98zm271 0l133 379h114L469 958H369z"/><glyph unicode="„" horiz-adv-x="788" d="M133-209l133 377h113L233-209H133zm268 0l134 377h114L504-209H401z"/><glyph unicode="•" horiz-adv-x="778" d="M193 682q0 84 58.5 142.5T393 883q84 0 142.5-58.5T594 682q0-83-59-142t-142-59-141.5 59T193 682z"/><glyph unicode="…" horiz-adv-x="1378" d="M201 0v162h112V0H201zm436 0v162h111V0H637zm436 0v162h111V0h-111z"/><glyph horiz-adv-x="358"/><glyph unicode="‹" horiz-adv-x="684" d="M74 522l364 393h137L199 522l376-391H438z"/><glyph unicode="›" horiz-adv-x="704" d="M117 131l375 391-375 393h135l364-393-364-391H117z"/><glyph horiz-adv-x="447"/><glyph unicode="€" horiz-adv-x="1318" d="M82 461v86h141q-6 53-6 110 0 63 6 115H82v86h151q43 244 199 361.5T827 1337q200 0 394-75v-97q-199 76-383 76-427 0-502-383h647v-86H324q-7-61-7-115 0-23 3.5-66t3.5-44h659v-86H336Q410 78 840 78q193 0 381 72V53q-197-71-394-71-241 0-397 116.5T233 461H82z"/><glyph unicode="™" horiz-adv-x="1480" d="M86 1266v51h545v-51H385V657h-51v609H86zm643-609v660h55l246-350q52 76 244 350h57V657h-53v574l-248-350-250 350V657h-51z"/><glyph unicode="" horiz-adv-x="993" d="M0 0v993h993V0H0z"/></font>
</defs>
</svg>
