<svg xmlns="http://www.w3.org/2000/svg"><defs><font id="maven_pro_light100" horiz-adv-x="1026"><font-face units-per-em="2048" ascent="1638" descent="-410"/><glyph horiz-adv-x="2048"/><glyph horiz-adv-x="2048"/><glyph horiz-adv-x="2048"/><glyph horiz-adv-x="530"/><glyph horiz-adv-x="530"/><glyph horiz-adv-x="530"/><glyph unicode="!" horiz-adv-x="380" d="M164 0v160h12V0h-12zm0 328v895h12V328h-12z"/><glyph unicode="&quot;" horiz-adv-x="552" d="M141 1243h17l-4-412h-9zm254 0h17l-4-412h-9z"/><glyph unicode="#" horiz-adv-x="1132" d="M121 326v10h188l70 401H184v11h197l51 292h10l-51-292h424l51 292h11l-52-292h189v-11H823l-69-401h194v-10H752L702 35h-10l49 291H317L268 35h-10l49 291H121zm198 10h424l70 401H389z"/><glyph unicode="$" horiz-adv-x="1036" d="M102 53v13Q281-8 496-8v637q-39 9-63 15t-59.5 16-58 19.5-52 24-47.5 30-37.5 36.5-30.5 45.5-18 55.5-7 67q0 142 97 223.5t276 81.5v168h10v-168q182-3 346-72v-12q-164 69-346 72V639q44-10 67-15.5t63.5-17 63-20.5 55.5-24.5 52-31.5 41-39.5 33.5-49.5 19.5-59.5 8-72.5q0-50-12.5-95.5t-43-88-75.5-74-115-51T506-20v-226h-10v226q-209 0-394 73zm33 885q0-43 11-79.5t27.5-62.5 46.5-48.5 56-36.5 68.5-28.5T417 660t79-19v590q-178 0-269.5-80.5T135 938zM506-8q106 1 184 28.5T812 94t64.5 99.5T897 309q0 47-12.5 86.5t-30 67.5-51.5 52.5-60.5 39-75 30T590 607t-84 20V-8z"/><glyph unicode="%" horiz-adv-x="1398" d="M123 909q0 76 15 132.5t38 89 57 52 65 25.5 69 6q37 0 67.5-6t64-25.5T555 1131t38-89 15-133q0-77-15-134t-38-89.5-56.5-52-64-25.5-67.5-6q-38 0-69 6t-65 25.5-57 52-38 89.5-15 134zm12 0q0-75 14.5-130.5t36-86 54.5-49 62-24 65-5.5 64.5 5.5 60.5 24 53.5 49 36 86T596 909q0 74-14.5 129t-36 86-53.5 49-60.5 23.5-64.5 5.5-65-5.5-62-23.5-54.5-49-36-86T135 909zM291 0l807 1223h14L305 0h-14zm502 315q0 76 15 133t37.5 89 56.5 52 65 26 69 6q37 0 67.5-6t64.5-26 57-52 38-89 15-133q0-64-10-114.5t-28.5-83.5-41-55-51.5-33.5-55-16-56-4.5q-38 0-69 6t-65 25.5-56.5 52T808 181t-15 134zm12 0q0-75 14.5-130.5t36-86 54-49 61.5-24 65-5.5 64.5 5.5 61 24 54 49 36 86T1266 315q0 74-14.5 129t-36 86-54 49-61 23.5-64.5 5.5-65-5.5-61.5-23.5-54-49-36-86T805 315z"/><glyph unicode="&amp;" horiz-adv-x="1085" d="M123 309q0 60 18 113t43 90 69 75.5 78.5 62T420 705q-83 101-121.5 175.5T260 1024q0 97 63.5 158t163.5 61q60 0 105.5-19.5t70-52.5 36.5-70 12-77q0-51-22-97.5T623.5 839 538 768t-102-66l436-495q72 100 119 233h13q-46-135-125-241L1055 0h-15L872 190Q710-20 477-20q-93 0-171.5 35T175 126.5 123 309zm12 0q0-77 29-139t77.5-100 109-58T477-8q228 0 387 207L426 696q-65-39-108-71t-89.5-79.5-70-107T135 309zm137 715q0-67 36.5-138.5T430 711q61 37 103.5 67.5t83 69.5 61 83 20.5 93q0 37-10.5 71t-33.5 66-66 51-101 19q-94 0-154.5-58T272 1024z"/><glyph unicode="'" horiz-adv-x="411" d="M190 1243h17l-4-412h-8z"/><glyph unicode="(" horiz-adv-x="460" d="M123 524q0 140 21 277t57 250 69.5 194.5T342 1399h12q-38-71-71.5-152.5T213 1052t-57-250.5T135 524q0-138 21.5-275t57-249.5 69.5-194T354-346h-12q-38 71-71.5 152T201-1t-57 249-21 276z"/><glyph unicode=")" horiz-adv-x="466" d="M102-346q38 70 72 151.5t69.5 194 57 249.5T322 524q0 140-21.5 277.5T243 1052t-69.5 194.5T102 1399h13q38-72 71.5-153.5T256 1051t57-250 21-277q0-139-21-276T256-1t-69.5-193T115-346h-13z"/><glyph unicode="*" horiz-adv-x="673" d="M121 1030l213 121-213 119 6 10 209-123-2 242h12l-2-242 209 123 6-10-213-119 213-121-6-10-209 125 2-244h-12l2 244-209-125z"/><glyph unicode="+" horiz-adv-x="933" d="M123 520v12h336v336h12V532h336v-12H471V184h-12v336H123z"/><glyph unicode="," horiz-adv-x="364" d="M102-170l99 330h12l-98-330h-13z"/><glyph unicode="-" horiz-adv-x="944" d="M123 522v10h684v-10H123z"/><glyph unicode="." horiz-adv-x="331" d="M164 0v160h12V0h-12z"/><glyph unicode="/" horiz-adv-x="679" d="M-35-346l752 1745h12L-23-346h-12z"/><glyph unicode="0" horiz-adv-x="1093" d="M123 612q0 322 103 476.5T557 1243t330-155 102-476-102-476.5T557-20 226 135 123 612zm12 0q0-318 98-469T557-8q225 0 322.5 151.5T977 612t-97.5 468T557 1231q-226 0-324-150.5T135 612z"/><glyph unicode="1" horiz-adv-x="675" d="M164 1059v14l260 150h10V0h-12v1206z"/><glyph unicode="2" horiz-adv-x="1005" d="M137 0v6q72 58 131 107.5t135 119T537.5 363 656 497.5 755 637t64 137 25 135q0 61-21.5 116.5t-65 102.5-119.5 75-175 28q-163 0-318-72v12q155 72 318 72 102 0 180.5-29t123.5-78.5 67-106.5 22-120q0-88-46.5-190.5T695 526.5 526.5 336t-183-173T160 10h741V0H137z"/><glyph unicode="3" horiz-adv-x="909" d="M88 45v12Q207-8 391-8q203 0 308.5 82T805 309q0 152-104.5 237.5T389 635H238v10h147q187 4 281 81.5T760 942q0 139-96 214t-281 75q-166 0-274-57v12q114 57 274 57 191 0 290-77.5T772 942q0-128-76-205.5T467 641q175-18 262.5-103.5T817 309q0-159-108.5-244T391-20Q207-20 88 45z"/><glyph unicode="4" horiz-adv-x="1009" d="M92 356v6l660 861h8V367h180v-11H760V0h-12v356H92zm17 11h639v831z"/><glyph unicode="5" horiz-adv-x="1019" d="M119 51v12q61-33 160.5-52T471-8q58 0 110 9t104.5 33.5 90 63.5 61 103.5T860 350q0 82-22 145.5t-58 102-87 63.5-102.5 34.5T479 705q-162 0-319-58l-4 2 84 574h555v-11H250l-82-550q155 55 311 55 61 0 114.5-10T699 671t89.5-66T849 499.5 872 350q0-86-24.5-153T784 90t-93-65.5-107-35T471-20Q380-20 280.5-.5T119 51z"/><glyph unicode="6" horiz-adv-x="1050" d="M123 557q0 128 20.5 232.5t53.5 174 80 122.5 93 82 100.5 47 95.5 23 83 5q57 0 135-12v-10q-65 10-135 10-42 0-82-5t-92.5-22.5-97.5-46-90.5-79.5T209 959.5 156.5 791 135 567q69 63 176 106.5T539 717q179 0 283-96.5T926 354q0-77-23-143.5T835 92 714 10 539-20q-211 0-313.5 141T123 557zm12-8q0-282 100-419.5T539-8q96 0 169.5 29t117 80T891 215.5 913 354q0 164-100.5 257.5T539 705q-123 0-230-44T135 555v-6z"/><glyph unicode="7" horiz-adv-x="1030" d="M127 1212v11h786v-11L438 0h-14l477 1212H127z"/><glyph unicode="8" d="M123 328q0 150 90 240t258 102q-144 10-220.5 84T174 952q0 136 91.5 213.5T524 1243t257.5-77T872 952q0-124-76.5-198T575 670q169-12 260-102t91-240q0-163-104.5-255.5T524-20q-192 0-296.5 92.5T123 328zm12 0q0-157 101.5-246.5T524-8q187 0 288 89.5T913 328 812 574.5 524 664q-186 0-287.5-89.5T135 328zm51 624q0-129 88.5-202.5T524 676t248.5 73.5T860 952q0 131-87.5 205T524 1231t-249.5-74.5T186 952z"/><glyph unicode="9" horiz-adv-x="1071" d="M123 868q0 77 23 143.5t68 119 121 82.5 175 30q211 0 313.5-141T926 666q0-128-20.5-232.5t-53.5-174T772 137t-93.5-82-101-47T482-15t-83-5q-57 0-135 12V2Q329-8 399-8q42 0 82 5t92.5 22.5T671 65t90.5 79T839 262.5 891.5 431 913 655q-69-62-175.5-105.5T510 506q-179 0-283 96.5T123 868zm12 0q0-163 101-256.5T510 518q123 0 229 43.5T913 668v6q0 283-99.5 420T510 1231q-96 0-169.5-29T223 1121.5 157 1006t-22-138z"/><glyph unicode=":" horiz-adv-x="339" d="M164 0v160h12V0h-12zm0 780v160h12V780h-12z"/><glyph unicode=";" horiz-adv-x="370" d="M78-170l98 330h12L90-170H78zm86 950v160h12V780h-12z"/><glyph unicode="&lt;" horiz-adv-x="993" d="M127 522v8l741 332v-12L145 526l723-325v-13z"/><glyph unicode="=" horiz-adv-x="948" d="M121 313v13h684v-13H121zm0 414v12h684v-12H121z"/><glyph unicode="&gt;" horiz-adv-x="989" d="M127 188v13l723 325-723 324v12l741-332v-8z"/><glyph unicode="?" horiz-adv-x="727" d="M86 1186v10q99 47 231 47 33 0 66-4t74.5-14.5T534 1193t65-52 47.5-80T664 950q0-60-17-107.5t-43.5-80-59-62.5-65-61.5-59-69-43.5-94T360 348v-20h-12v20q0 72 16.5 129.5t43.5 95 59 70 64.5 62 59.5 62 43.5 79T651 950q0 71-25 124.5t-60 82.5-84 46.5-87 22.5-78 5q-133 0-231-45zM348 0v160h12V0h-12z"/><glyph unicode="@" horiz-adv-x="1869" d="M137 356q0 175 76 339t200.5 282T704 1166t340 71q147 0 275.5-54.5t219-148.5T1681 811t52-274q0-191-93-323T1413 82q-113 0-164 54.5T1196 266q-11-53-45-92t-80-58-90-27.5-88-8.5q-30 0-61.5 4T763 101t-65.5 33-47.5 55-19 81q0 62 27.5 108t66 70 92 38.5 93 18T991 508q107 0 232-27l4 33q6 43 6 82 0 104-58 156.5T981 805q-102 0-197-25v6q89 27 197 27 139 0 199.5-54.5T1241 596q0-42-6-82l-31-211q-1-22-1-49t13.5-56 34.5-53 63.5-39.5T1413 90q131 0 221 129t90 318q0 192-87 350t-243 250-350 92q-172 0-337-70.5T419 971 220.5 692 145 356q0-190 86.5-347.5t242.5-250T823-334q185 0 365 80l-2-8q-177-80-363-80-195 0-352.5 93.5T225 4.5 137 356zm502-86q0-53 27-91.5t69.5-57 81.5-26 76-7.5q42 0 84.5 8t90.5 28 82.5 62.5T1194 289l27 184q-122 27-230 27-41 0-79.5-3.5t-91-17.5-90-37.5-64.5-68T639 270z"/><glyph unicode="A" horiz-adv-x="1198" d="M70 0l520 1223h8L1118 0h-14L932 406H256L84 0H70zm190 416h668l-334 784z"/><glyph unicode="B" horiz-adv-x="1060" d="M123 0v1223h395q185 0 278-84t93-213q0-112-69.5-193.5T616 629q149-11 240.5-91T948 317q0-146-99.5-231.5T571 0H123zm12 10h436q171 0 268 83.5T936 317q0 147-102.5 225.5T569 621H135V10zm0 621h383q176 0 267.5 84.5T877 926q0 123-90 204.5T518 1212H135V631z"/><glyph unicode="C" horiz-adv-x="1134" d="M123 608q0 149 35.5 264t91 183.5T382 1168t150.5 59.5T688 1243q156 0 352-63v-13q-192 64-352 64-80 0-152.5-15t-148-58T258 1048t-88.5-180T135 608q0-107 18-195.5t48.5-151T276 151t92-77.5T473 25 582.5-1 692-8q170 0 348 55V35Q855-20 692-20q-58 0-111.5 7.5T469 14 362 63t-94 79.5T191.5 256t-50 154T123 608z"/><glyph unicode="D" horiz-adv-x="1148" d="M123 0v1223h346q586 0 586-613 0-305-145.5-457.5T469 0H123zm12 10h334q573 0 573 600 0 602-573 602H135V10z"/><glyph unicode="E" horiz-adv-x="937" d="M123 0v1223h727v-11H135V629h633v-11H135V10h715V0H123z"/><glyph unicode="F" horiz-adv-x="919" d="M123 0v1223h706v-11H135V621h613v-11H135V0h-12z"/><glyph unicode="G" horiz-adv-x="1179" d="M123 610q0 148 35.5 262.5t91 183 132.5 112 151.5 59.5 156.5 16q156 0 352-63v-13q-192 64-352 64-81 0-153.5-15.5t-148-58-130-109.5-89-179.5T135 610q0-148 35-261t89-179T389.5 62.5 538 6.5 692-8q187 0 363 63v533H610v10h457V49Q886-20 692-20q-58 0-111.5 7.5T469 14 362 63.5t-94 80T191.5 257t-50 154T123 610z"/><glyph unicode="H" horiz-adv-x="1112" d="M123 0v1223h12V618h823v605h13V0h-13v608H135V0h-12z"/><glyph unicode="I" horiz-adv-x="299" d="M123 0v1223h12V0h-12z"/><glyph unicode="J" horiz-adv-x="718" d="M76 29v12Q179-8 303-8q277 0 277 313v918h12V305q0-162-74-243.5T303-20Q187-20 76 29z"/><glyph unicode="K" horiz-adv-x="997" d="M123 6v1217h12V438l713 785h14L350 657 918 0h-17L342 649 135 422V6h-12z"/><glyph unicode="L" horiz-adv-x="886" d="M123 0v1223h12V10h672V0H123z"/><glyph unicode="M" horiz-adv-x="1333" d="M123 0v1223h10l529-750 528 750h10V0h-12v1198L662 453l-527 745V0h-12z"/><glyph unicode="N" horiz-adv-x="1134" d="M123 0v1223h8L991 27v1196h13V0h-9L135 1196V0h-12z"/><glyph unicode="O" horiz-adv-x="1361" d="M123 612q0 310 135 470.5T680 1243q285 0 420-160.5T1235 612q0-312-134.5-472T680-20q-287 0-422 160T123 612zm12 0q0-306 131.5-463T680-8q281 0 412 157t131 463q0 304-131 461.5T680 1231q-282 0-413.5-157.5T135 612z"/><glyph unicode="P" horiz-adv-x="950" d="M123 6v1217h358q190 0 295-98t105-259q0-167-111.5-259.5T479 514H135V6h-12zm12 518h344q172 0 280.5 90.5T868 866q0 155-101.5 250.5T481 1212H135V524z"/><glyph unicode="Q" horiz-adv-x="1343" d="M123 612q0 310 135 470.5T680 1243q285 0 420-160.5T1235 612q0-309-134-470T684-20q7-44 19.5-83t40-82.5 66-75 100-54T1049-340v-12q-81 3-145 26.5T800.5-269 733-191t-41 85.5T672-20q-283 3-416 163T123 612zm12 0q0-306 131.5-463T680-8q281 0 412 157t131 463q0 304-131 461.5T680 1231q-282 0-413.5-157.5T135 612z"/><glyph unicode="R" horiz-adv-x="1036" d="M123 0v1223h395q183 0 284-93.5T903 881q0-143-85.5-229.5T588 547L938 0h-14L575 545q-18-2-59-2H135V0h-12zm12 553h381q166 0 270.5 87T891 881q0 149-98 240t-275 91H135V553z"/><glyph unicode="S" horiz-adv-x="1036" d="M102 53v13Q281-8 496-8q108 0 188.5 27T810 92t66 100 21 117q0 92-42.5 153.5t-111 92-151 51.5-165 41.5-151 50.5-111 90T123 938q0 138 92.5 221.5T485 1243q197 0 367-72v-12q-170 72-367 72-171 0-260.5-80.5T135 938q0-69 26.5-119.5t71.5-80 103-51 122-36 128-30T708 583t103-56 71.5-88.5T909 309q0-51-13-97t-44-89-77-74T657.5-1 496-20q-209 0-394 73z"/><glyph unicode="T" horiz-adv-x="1075" d="M53 1212v11h959v-11H539V0h-13v1212H53z"/><glyph unicode="U" horiz-adv-x="1161" d="M123 440v783h12V440q0-218 114.5-333T575-8q212 0 327.5 115T1018 440v783h12V440q0-224-118.5-342T575-20Q358-20 240.5 98T123 440z"/><glyph unicode="V" horiz-adv-x="1183" d="M70 1223h14L594 23l510 1200h14L598 0h-8z"/><glyph unicode="W" horiz-adv-x="1705" d="M72 1223h14L467 27l391 1196h8L1257 27l381 1196h15L1262 0h-9L862 1196 471 0h-8z"/><glyph unicode="X" horiz-adv-x="1097" d="M88 0l455 623-434 600h14l426-590 428 590h14L555 623 1008 0h-15L549 612 102 0H88z"/><glyph unicode="Y" horiz-adv-x="1038" d="M63 1223h15l446-725 449 725h14L530 485V0h-12v485z"/><glyph unicode="Z" horiz-adv-x="1112" d="M135 0v6l844 1206H160v11h835v-6L154 10h856V0H135z"/><glyph unicode="[" horiz-adv-x="522" d="M123-346v1745h297v-10H135V-336h285v-10H123z"/><glyph unicode="\" horiz-adv-x="690" d="M-35 1399h12L729-346h-12z"/><glyph unicode="]" horiz-adv-x="583" d="M123-336h285v1725H123v10h297V-346H123v10z"/><glyph unicode="^" horiz-adv-x="747" d="M94 844l273 471h8l272-471h-12l-264 456-265-456H94z"/><glyph unicode="_" horiz-adv-x="851" d="M0-49h852v-10H0v10z"/><glyph unicode="`" horiz-adv-x="522" d="M141 1362h19l227-252h-14z"/><glyph unicode="a" horiz-adv-x="1015" d="M123 268q0 61 22 109.5t60.5 78.5 82 50.5 96 30 92.5 13 81 3.5q110 0 307-37v43q0 95-18 162.5t-60 119T669 917t-184 25q-123 0-256-35v13q136 34 256 34 112 0 189-26t121-78.5T858 727t19-168V260q0-69-28-121t-68.5-80T686 13.5 590.5-9 508-14q-36 0-72.5 4.5T353 5t-85 31.5-72.5 51-53 76T123 268zm12 0q0-55 19-99.5T205.5 96 276 47.5 358 17t80-14.5T508-2q31 0 64.5 4t76 13.5 79 29 68 46.5 50 71 18.5 98v244q-201 37-307 37-40 0-79-3.5t-90-13-93.5-29-79.5-48-58.5-75T135 268z"/><glyph unicode="b" horiz-adv-x="1005" d="M123 266v1043h12V889q157 65 336 65 432 0 432-483 0-88-15-160t-39-121.5-59.5-87-72-59-80.5-35-81-18-77-4.5q-89 0-157 22.5T217.5 63t-59 73-29 72-6.5 58zm12 0q0-25 6.5-54.5t28.5-69 57.5-70 101-52.5T479-2q57 0 107.5 9T695 46.5t99.5 79.5 69 138T891 471q0 471-420 471-186 0-336-65V266z"/><glyph unicode="c" horiz-adv-x="905" d="M123 469q0 117 27 206t69.5 140.5 102.5 84T438.5 943 559 954q124 0 264-45v-12q-143 45-264 45-62 0-117-11t-113-43-99.5-83-68-137T135 469q0-94 18-170t50.5-126T276 87.5 366 33t96-27 97-8q121 0 264 45V31Q683-14 559-14q-65 0-121 11T322 40t-102.5 83.5-69.5 140T123 469z"/><glyph unicode="d" horiz-adv-x="1056" d="M123 471q0 483 432 483 179 0 336-65v420h12V266q0-27-6.5-58t-29-72-59-73T704 8.5 547-14q-40 0-77 4.5t-81 18-80.5 35-72 59-59.5 87T138 311t-15 160zm12 0q0-118 27.5-207t69-138T331 46.5 439.5 7 547-2q85 0 150.5 22t101 52.5 57.5 70 28.5 69T891 266v611q-150 65-336 65-420 0-420-471z"/><glyph unicode="e" horiz-adv-x="1021" d="M123 467q0 73 12 139t43 131 77.5 112 121 76T545 954q72 0 132-20.5t99.5-52 69.5-76 46-87 26-90.5 13-80.5 3-62.5v-16H135v-2q0-103 24-184.5t64.5-134 97-87 117-49T567-2q172 0 299 57V43Q731-14 567-14 496-14 433.5.5T313 50.5t-99.5 89-66 137.5T123 467zm12 12h787v6q0 29-2.5 60.5t-12 78-25 88-44.5 85-67.5 74.5-96.5 51-129 20q-90 0-161.5-27t-117-72T191 737t-42.5-124.5T135 479z"/><glyph unicode="f" horiz-adv-x="591" d="M80 930v10h125v154q0 46 10 83t24 60.5 36.5 41T317 1304t44.5 13 39.5 5.5 33 .5q58 0 125-18v-11q-70 19-125 19-26 0-46-2t-55-13.5-57.5-33T235 1199t-18-105V940h326v-10H217V0h-12v930H80z"/><glyph unicode="g" d="M123 477q0 88 15 159.5t39 120 59.5 85T308 899t79.5 34 79.5 17 76 4q67 0 122-12t91-31.5 63.5-45.5 42.5-51.5 24.5-53.5 12-47 2.5-35V-76q0-48-8.5-88t-35-82.5-70-72-118-48T496-385q-127 0-238 27v12q127-27 238-27 393 0 393 297V92Q719 10 545 10q-44 0-83 4.5T379.5 32 300 66.5 230 124t-56.5 84T137 324.5 123 477zm12 0q0-113 25.5-197t65-131.5T322 72t109-38 114-9q180 0 344 79v574q0 23-5.5 50.5t-27 67.5-56.5 70.5-102 53T543 942q-39 0-74-4t-77.5-16.5-77.5-33-69-56.5-57.5-83.5-38-117T135 477z"/><glyph unicode="h" horiz-adv-x="1013" d="M123 0v1309h12V848q226 106 404 106 168 0 256-81.5T883 610V0h-13v610q0 175-85 253.5T539 942q-186 0-404-106V0h-12z"/><glyph unicode="i" horiz-adv-x="278" d="M123 0v940h12V0h-12zm0 1126v136h12v-136h-12z"/><glyph unicode="j" horiz-adv-x="364" d="M-31-373h6q19 0 31.5.5t38 4.5T87-356.5t39 23.5 35 38 22.5 57.5T193-158V940h12V-158q0-47-10-84t-23.5-60.5-36.5-40T94-367t-45-12.5-40-5-34-.5h-6v12zm224 1499v136h12v-136h-12z"/><glyph unicode="k" horiz-adv-x="831" d="M123 0v1309h12V350l570 590h16L315 520 774 0h-16L307 512 135 334V0h-12z"/><glyph unicode="l" horiz-adv-x="313" d="M143 0v1309h13V0h-13z"/><glyph unicode="m" horiz-adv-x="1669" d="M123 0v842q212 112 389 112 201 0 276-135 206 135 422 135 157 0 239.5-81.5T1532 610V0h-12v610q0 175-79.5 253.5T1210 942q-217 0-415-133 39-77 39-199V0h-13v610q0 332-309 332-181 0-377-108V0h-12z"/><glyph unicode="n" horiz-adv-x="1003" d="M123 0v838q215 116 416 116 168 0 256-81t88-261V0h-13v612q0 174-85 252t-246 78q-195 0-404-111V0h-12z"/><glyph unicode="o" horiz-adv-x="1122" d="M123 467q0 115 27 203.5t69.5 141T322 897t117.5 45T563 954q65 0 122-12t116-45 101-85.5 68.5-141T997 467q0-113-26.5-200.5T902 127 801 42.5 685-2 563-14q-54 0-103 8.5T360 23t-92.5 56.5-74.5 88-51.5 128T123 467zm12 0q0-111 27-196t68.5-135.5 100-82.5T445 9.5 563-2 680.5 9.5t113 43.5 98.5 82.5T959 271t26 196q0 113-26 199t-67 137.5-98.5 83.5-113 43.5T563 942t-118-11.5T330.5 887t-100-83T162 666.5 135 467z"/><glyph unicode="p" d="M123-371V674q0 27 6.5 58t29 72 59 73T322 931.5 479 954q40 0 77-4.5t81-18 80.5-35 72-59 59.5-87T888 629t15-160q0-483-432-483-179 0-336 65v-422h-12zm12 434Q285-2 471-2q420 0 420 471 0 118-27.5 207t-69 138-99.5 79.5T586.5 933 479 942q-85 0-150.5-22t-101-52.5-57.5-70-28.5-69T135 674V63z"/><glyph unicode="q" horiz-adv-x="1048" d="M123 469q0 88 15 160t39 121.5 59.5 87 72 59 80.5 35 81 18 77 4.5q89 0 157-22.5T808.5 877t59-73 29-72 6.5-58V-371h-12V51Q734-14 555-14q-432 0-432 483zm12 0Q135-2 555-2q186 0 336 65v611q0 25-6.5 54.5t-28.5 69-57.5 70-101 52.5T547 942q-57 0-107.5-9T331 893.5 231.5 814t-69-138T135 469z"/><glyph unicode="r" horiz-adv-x="598" d="M123 0v870q194 77 412 84v-12q-207-7-400-80V0h-12z"/><glyph unicode="s" horiz-adv-x="862" d="M100 41v12Q250-2 420-2q86 0 149.5 20.5t99 55.5 52 76.5T737 240q0 69-33.5 115.5t-87.5 70T497 465l-130 32-119 39.5-87.5 70L127 721q0 105 74 169t215 64 280-49v-12q-139 49-280 49-134 0-205.5-61T139 721q0-58 26.5-99.5t69-63.5 97.5-39.5 112.5-28T557 461t97.5-43 69-69.5T750 240q0-49-17.5-92.5t-54.5-81-103.5-59T420-14q-170 0-320 55z"/><glyph unicode="t" horiz-adv-x="610" d="M57 930v10h125v266h13V940h335v-10H195V213q0-61 18-104.5T253.5 44t58-32 54-12.5T412-2q59 0 125 16V2q-74-16-125-16-20 0-33 .5t-39.5 5-45 12.5T253 28.5t-37 40-24 60.5-10 84v717H57z"/><glyph unicode="u" d="M123 379v561h12V379q0-184 97-282.5T508-2q178 0 275.5 98.5T881 379v561h12V379q0-190-100-291.5T508-14 223 87.5 123 379z"/><glyph unicode="v" horiz-adv-x="1007" d="M86 940h14L512 20l412 920h14L516 0h-8z"/><glyph unicode="w" horiz-adv-x="1558" d="M96 940h15L455 23l323 917h8l324-917 344 917h14L1114 0h-8L782 915 459 0h-8z"/><glyph unicode="x" horiz-adv-x="948" d="M94 0l367 475-357 465h15l350-457 350 457h15L477 475 846 0h-15L469 467 109 0H94z"/><glyph unicode="y" horiz-adv-x="970" d="M96 940h15L506-18l362 958h15L467-158q-48-124-110.5-175.5T205-385q-47 0-92 18v13q47-19 92-19 80 0 141 47.5T455-154l45 119z"/><glyph unicode="z" horiz-adv-x="905" d="M119 0v8l659 922H137v10h656v-8L135 10h684V0H119z"/><glyph unicode="{" horiz-adv-x="534" d="M106 522v8q63 45 102.5 96.5T248 748v389q0 114 58.5 188t154.5 74v-10q-90 0-145.5-71.5T260 1137V748q0-122-141-222 141-100 141-221V-84q0-109 55.5-180.5T461-336v-10q-96 0-154.5 74T248-84v389q0 70-39.5 121T106 522z"/><glyph unicode="|" horiz-adv-x="342" d="M160-346v1745h12V-346h-12z"/><glyph unicode="}" horiz-adv-x="544" d="M106-336q90 0 145.5 71.5T307-84v389q0 120 142 221-142 101-142 222v389q0 109-55.5 180.5T106 1389v10q96 0 154.5-74t58.5-188V748q0-70 39.5-121.5T461 530v-8q-63-45-102.5-96T319 305V-84q0-114-58.5-188T106-346v10z"/><glyph unicode="~" horiz-adv-x="995" d="M100 483q31 68 90 114t125 46q49 0 102.5-25t93-55 92-55 99.5-25q56 0 105 38t82 114l12-4q-32-79-86-119.5T702 471q-51 0-104 25t-91.5 55-90.5 55-101 25q-64 0-118.5-43.5T113 479z"/><glyph unicode="¡" horiz-adv-x="380" d="M164-281v895h12v-895h-12zm0 1063v160h12V782h-12z"/><glyph unicode="¢" horiz-adv-x="905" d="M123 682q0 115 26.5 203t68 140 100 85 114.5 44.5 119 12.5v176h10v-176q122 0 262-45v-12q-143 45-262 45V211q119 0 262 45v-12q-140-45-262-45V2h-10v197q-52 1-99 9t-97.5 27.5T264 291t-72.5 87.5-50.5 129T123 682zm12 0q0-111 26-196.5t66.5-136T325 267t111-43.5T551 211v944q-61-1-115-12.5t-111-44-97.5-83.5T161 878.5 135 682z"/><glyph unicode="£" horiz-adv-x="1001" d="M84 4q106 29 182 29v536H86v11h180v338q0 63 21.5 120.5T354 1146t124.5 79.5T662 1255q143 0 276-63v-12q-126 63-276 63-102 0-178.5-28.5t-119.5-76-64-103T279 918V580h493v-11H279V33q84 0 239-31t250-31q96 0 170 23v-12q-74-23-170-23-98 0-255.5 32T274 23Q194 23 84-6V4z"/><glyph unicode="¥" horiz-adv-x="1038" d="M63 1223h15l446-684 449 684h14L535 532h346v-10H530V276h351v-10H530V0h-12v266H170v10h348v246H170v10h344z"/><glyph unicode="§" horiz-adv-x="997" d="M121 76v12q139-47 311-47 165 0 242.5 60.5T752 250q0 59-34 102.5T629 422t-121 47.5-132.5 43T254 561t-89 72-34 106q0 83 63.5 137.5T379 940q-69 34-106 76t-37 104q0 87 75.5 140t220.5 53 279-41v-12q-131 40-279 40-139 0-211.5-50T248 1120q0-55 35-96t90.5-67 123-48T631 864.5 753.5 814t90.5-73 35-104q0-76-61.5-131.5T627 436q137-67 137-186 0-43-18-81t-55-70-103.5-51T432 29q-172 0-311 47zm22 663q0-56 29.5-97.5T256 573t108.5-45.5 128-41T610 444q133 13 194.5 67T866 637q0 45-22.5 81t-56 60-85 46.5-98 36.5T498 895t-99 37q-124-4-190-57.5T143 739z"/><glyph unicode="¨" horiz-adv-x="587" d="M123 1110v156h12v-156h-12zm307 0v156h12v-156h-12z"/><glyph unicode="©" horiz-adv-x="1464" d="M96 612q0 170 85 315t230.5 229.5T727 1241t315.5-84.5T1273 927t85-315q0-128-50.5-245t-135-201-201-134T727-18 482.5 32t-201 134-135 201T96 612zm8 0q0-169 84-312.5T415.5 73 727-10t311.5 83T1266 299.5t84 312.5q0 168-84 311t-227.5 226.5T727 1233t-311.5-83.5T188 923t-84-311zm289-2q0 93 21.5 164T470 887t81.5 68.5 93 36 96.5 9.5q94 0 213-38v-9q-125 39-213 39-50 0-94.5-9.5T556 948t-79.5-67.5-54.5-111T401 610t21.5-159 55-110 80-66.5 91-34.5 94.5-9q95 0 211 33v-8q-98-33-211-33-51 0-96.5 9T553 267t-82 67.5-56 112T393 610z"/><glyph unicode="ª" horiz-adv-x="651" d="M100 975q0 34 12.5 61t34 43.5 46 28T247 1124t52.5 7 46.5 2q76 0 172-21v25q0 108-47 160.5T305 1350q-76 0-141-21v8q78 21 141 21 124 0 172.5-55t48.5-166V969q0-47-22.5-80.5t-58.5-48-66.5-20T317 815q-33 0-65.5 6.5t-69 22T123 893t-23 82zm9 0q0-45 22-77.5t57.5-47.5 66.5-21 62-6q29 0 58.5 5.5t64 19.5 56.5 45 22 76v135q-92 20-172 20-37 0-70.5-5t-75-18.5-66.5-46-25-79.5z"/><glyph unicode="«" horiz-adv-x="1042" d="M96 522l398 400h16L113 522l397-393h-16zm424 0l398 400h16L537 522l397-393h-16z"/><glyph unicode="¬" horiz-adv-x="1015" d="M141 565v13h752V344h-10v221H141z"/><glyph unicode="­" horiz-adv-x="944" d="M123 522v10h684v-10H123z"/><glyph unicode="®" horiz-adv-x="1464" d="M96 612q0 170 85 315t230.5 229.5T727 1241t315.5-84.5T1273 927t85-315q0-128-50.5-245t-135-201-201-134T727-18 482.5 32t-201 134-135 201T96 612zm8 0q0-169 84-312.5T415.5 73 727-10t311.5 83T1266 299.5t84 312.5q0 168-84 311t-227.5 226.5T727 1233t-311.5-83.5T188 923t-84-311zm394-372v749h274q115 0 181.5-55.5T1020 778q0-95-63.5-151.5T780 569l256-329h-10L770 569H506V240h-8zm8 335h266q111 0 175.5 53.5T1012 778q0 97-64.5 151T772 983H506V575z"/><glyph unicode="¯" horiz-adv-x="659" d="M123 1137v12h395v-12H123z"/><glyph unicode="°" horiz-adv-x="694" d="M115 1116q0 97 68 165.5t165 68.5 165.5-68.5T582 1116t-68.5-165T348 883t-165 68-68 165zm8 0q0-94 65.5-159.5T348 891t159.5 65.5T573 1116t-65.5 159.5T348 1341t-159.5-65.5T123 1116z"/><glyph unicode="±" horiz-adv-x="942" d="M123 0v12h684V0H123zm0 520v12h336v336h12V532h336v-12H471V184h-12v336H123z"/><glyph unicode="´" horiz-adv-x="514" d="M133 1110l227 252h21l-234-252h-14z"/><glyph unicode="µ" horiz-adv-x="1009" d="M123-371V942h12V330q0-173 85.5-251.5T467 0q194 0 403 111v831h13V104Q668-12 467-12q-139 0-222.5 54.5T135 217v-588h-12z"/><glyph unicode="¶" horiz-adv-x="782" d="M117 969q0 350 415 350h72V92h-12v524h-60q-415 0-415 353z"/><glyph unicode="·" horiz-adv-x="342" d="M164 494v159h12V494h-12z"/><glyph unicode="¸" horiz-adv-x="628" d="M135-252L375 0h14L162-252h-27z"/><glyph unicode="º" horiz-adv-x="741" d="M129 1085q0 80 22 136.5t60 85 78 40 88 11.5q36 0 68-6.5t65.5-25 57-48 38.5-79 15-114.5q0-64-15-113.5T567.5 893t-57-47-65.5-24.5-68-6.5q-48 0-88 11.5t-78 39-60 83.5-22 136zm8 0q0-77 21-131t58-81 76-38.5 85-11.5q44 0 82 11.5t74.5 38.5 57.5 81 21 131-21 132-57.5 82.5-74.5 39-82 11.5q-46 0-85-11.5t-76-39-58-82-21-132.5z"/><glyph unicode="»" horiz-adv-x="1028" d="M96 129l398 393L96 922h17l397-400-397-393H96zm424 0l398 393-398 400h17l397-400-397-393h-17z"/><glyph unicode="¿" horiz-adv-x="727" d="M86-8q0 60 16.5 107.5t43.5 80 59 62.5 64.5 61.5 59.5 69 43.5 94T389 594v20h12v-20q0-72-16.5-129.5t-43.5-95-59-70-64.5-62-59.5-62-43.5-79T98-8q0-71 25-124.5t60-82.5 84-46.5 87-22.5 78-5q134 0 232 45v-10q-99-47-232-47-41 0-81 5.5t-90 24-87 48.5-62.5 85.5T86-8zm303 790v160h12V782h-12z"/><glyph unicode="À" horiz-adv-x="1198" d="M70 0l520 1223h8L1118 0h-14L932 406H256L84 0H70zm190 416h668l-334 784zm160 1229h18l228-252h-15z"/><glyph unicode="Á" horiz-adv-x="1198" d="M70 0l520 1223h8L1118 0h-14L932 406H256L84 0H70zm190 416h668l-334 784zm279 977l227 252h20l-233-252h-14z"/><glyph unicode="Â" horiz-adv-x="1198" d="M70 0l520 1223h8L1118 0h-14L932 406H256L84 0H70zm190 416h668l-334 784zm100 977l228 252h12l229-252h-14l-221 241-219-241h-15z"/><glyph unicode="Ã" horiz-adv-x="1198" d="M70 0l520 1223h8L1118 0h-14L932 406H256L84 0H70zm190 416h668l-334 784zm109 987q18 36 49 59t67 23q39 0 113.5-40t112.5-40q68 0 104 82l10-4q-18-44-48.5-67t-65.5-23q-41 0-114 40t-112 40q-34 0-63-21t-43-53z"/><glyph unicode="Ä" horiz-adv-x="1198" d="M70 0l520 1223h8L1118 0h-14L932 406H256L84 0H70zm190 416h668l-334 784zm174 977v155h12v-155h-12zm307 0v155h13v-155h-13z"/><glyph unicode="Å" horiz-adv-x="1198" d="M70 0l520 1223h8L1118 0h-14L932 406H256L84 0H70zm190 416h668l-334 784zm191 1112q0 73 37 112t106 39 106-39 37-112q0-75-37-114.5T594 1374t-106 39.5-37 114.5zm14 0q0-69 33-105.5t96-36.5 96 36.5 33 105.5q0 68-33 103.5t-96 35.5-96-35.5-33-103.5z"/><glyph unicode="Æ" horiz-adv-x="1658" d="M-78 0l848 1223h743v-11H799V629h633v-11H799V10h714V0H786v397H211L-63 0h-15zm297 408h567v804h-10z"/><glyph unicode="Ç" horiz-adv-x="1134" d="M123 608q0 149 35.5 264t91 183.5T382 1168t150.5 59.5T688 1243q156 0 352-63v-13q-192 64-352 64-80 0-152.5-15t-148-58T258 1048t-88.5-180T135 608q0-107 18-195.5t48.5-151T276 151t92-77.5T473 25 582.5-1 692-8q170 0 348 55V35Q855-20 694-20L475-252h-20L680-20q-57 1-109.5 9t-110 28-105 50.5-91.5 80T189.5 260 141 412t-18 196z"/><glyph unicode="È" horiz-adv-x="937" d="M123 0v1223h727v-11H135V629h633v-11H135V10h715V0H123zm166 1645h18l228-252h-15z"/><glyph unicode="É" horiz-adv-x="937" d="M123 0v1223h727v-11H135V629h633v-11H135V10h715V0H123zm289 1393l227 252h20l-233-252h-14z"/><glyph unicode="Ê" horiz-adv-x="937" d="M123 0v1223h727v-11H135V629h633v-11H135V10h715V0H123zm127 1393l227 252h12l230-252h-14l-222 241-219-241h-14z"/><glyph unicode="Ë" horiz-adv-x="937" d="M123 0v1223h727v-11H135V629h633v-11H135V10h715V0H123zm205 1393v155h12v-155h-12zm307 0v155h12v-155h-12z"/><glyph unicode="Ì" horiz-adv-x="299" d="M-45 1645h18l228-252h-15zM123 0v1223h12V0h-12z"/><glyph unicode="Í" horiz-adv-x="299" d="M57 1393l228 252h20L72 1393H57zM123 0v1223h12V0h-12z"/><glyph unicode="Î" horiz-adv-x="299" d="M-104 1393l227 252h12l230-252h-15l-221 241-219-241h-14zM123 0v1223h12V0h-12z"/><glyph unicode="Ï" horiz-adv-x="299" d="M-31 1393v155h13v-155h-13zM123 0v1223h12V0h-12zm153 1393v155h13v-155h-13z"/><glyph unicode="Ð" horiz-adv-x="1267" d="M82 606v10h160v607h346q586 0 586-613 0-305-145.5-457.5T588 0H242v606H82zM254 10h334q573 0 573 600 0 602-573 602H254V616h457v-10H254V10z"/><glyph unicode="Ñ" horiz-adv-x="1134" d="M123 0v1223h8L991 27v1196h13V0h-9L135 1196V0h-12zm211 1403q18 36 49 59t68 23q39 0 113-40t112-40q68 0 104 82l11-4q-18-44-49-67t-66-23q-42 0-114 40t-111 40q-34 0-63.5-21t-43.5-53z"/><glyph unicode="Ò" horiz-adv-x="1361" d="M123 612q0 310 135 470.5T680 1243q285 0 420-160.5T1235 612q0-312-134.5-472T680-20q-287 0-422 160T123 612zm12 0q0-306 131.5-463T680-8q281 0 412 157t131 463q0 304-131 461.5T680 1231q-282 0-413.5-157.5T135 612zm350 1033h19l227-252h-14z"/><glyph unicode="Ó" horiz-adv-x="1361" d="M123 612q0 310 135 470.5T680 1243q285 0 420-160.5T1235 612q0-312-134.5-472T680-20q-287 0-422 160T123 612zm12 0q0-306 131.5-463T680-8q281 0 412 157t131 463q0 304-131 461.5T680 1231q-282 0-413.5-157.5T135 612zm473 781l228 252h20l-233-252h-15z"/><glyph unicode="Ô" horiz-adv-x="1361" d="M123 612q0 310 135 470.5T680 1243q285 0 420-160.5T1235 612q0-312-134.5-472T680-20q-287 0-422 160T123 612zm12 0q0-306 131.5-463T680-8q281 0 412 157t131 463q0 304-131 461.5T680 1231q-282 0-413.5-157.5T135 612zm309 781l228 252h12l229-252h-14l-221 241-219-241h-15z"/><glyph unicode="Õ" horiz-adv-x="1361" d="M123 612q0 310 135 470.5T680 1243q285 0 420-160.5T1235 612q0-312-134.5-472T680-20q-287 0-422 160T123 612zm12 0q0-306 131.5-463T680-8q281 0 412 157t131 463q0 304-131 461.5T680 1231q-282 0-413.5-157.5T135 612zm311 791q18 36 49 59t68 23q39 0 113-40t112-40q69 0 105 82l10-4q-18-44-49-67t-66-23q-42 0-114 40t-111 40q-34 0-63-21t-43-53z"/><glyph unicode="Ö" horiz-adv-x="1361" d="M123 612q0 310 135 470.5T680 1243q285 0 420-160.5T1235 612q0-312-134.5-472T680-20q-287 0-422 160T123 612zm12 0q0-306 131.5-463T680-8q281 0 412 157t131 463q0 304-131 461.5T680 1231q-282 0-413.5-157.5T135 612zm383 781v155h12v-155h-12zm307 0v155h13v-155h-13z"/><glyph unicode="Ø" horiz-adv-x="1361" d="M123 612q0 310 135 470.5T680 1243q235 0 369-110l65 90h12l-69-97q178-153 178-514 0-312-134.5-472T680-20Q438-20 307 90L242 0h-13l70 98Q123 249 123 612zm12 0q0-356 172-506l733 1016q-134 109-360 109-282 0-413.5-157.5T135 612zm178-512Q445-8 680-8q281 0 412 157t131 463q0 352-174 504z"/><glyph unicode="Ù" horiz-adv-x="1161" d="M123 440v783h12V440q0-218 114.5-333T575-8q212 0 327.5 115T1018 440v783h12V440q0-224-118.5-342T575-20Q358-20 240.5 98T123 440zm280 1205h19l227-252h-14z"/><glyph unicode="Ú" horiz-adv-x="1161" d="M123 440v783h12V440q0-218 114.5-333T575-8q212 0 327.5 115T1018 440v783h12V440q0-224-118.5-342T575-20Q358-20 240.5 98T123 440zm389 953l227 252h21l-234-252h-14z"/><glyph unicode="Û" horiz-adv-x="1161" d="M123 440v783h12V440q0-218 114.5-333T575-8q212 0 327.5 115T1018 440v783h12V440q0-224-118.5-342T575-20Q358-20 240.5 98T123 440zm219 953l227 252h13l229-252h-14l-222 241-219-241h-14z"/><glyph unicode="Ü" horiz-adv-x="1161" d="M123 440v783h12V440q0-218 114.5-333T575-8q212 0 327.5 115T1018 440v783h12V440q0-224-118.5-342T575-20Q358-20 240.5 98T123 440zm293 953v155h12v-155h-12zm307 0v155h12v-155h-12z"/><glyph unicode="Þ" horiz-adv-x="964" d="M123 6v1217h12V999h346q191 0 295.5-97.5T881 643q0-167-111.5-259.5T479 291H135V6h-12zm12 295h344q172 0 280.5 90.5T868 643q0 155-101.5 250.5T481 989H135V301z"/><glyph unicode="ß" horiz-adv-x="983" d="M117 0v870q0 178 91 275.5t275 97.5q353 0 353-301 0-126-77-203t-229-96q184-12 278.5-97T903 313Q903 0 477 0H375v10h102q414 0 414 303 0 155-109.5 239.5T459 637h-84v10h55q196 0 294.5 77T823 942q0 289-340 289-178 0-266-94.5T129 870V0h-12z"/><glyph unicode="à" horiz-adv-x="980" d="M123 268q0 61 22 109.5t60.5 78.5 82 50.5 96 30 92.5 13 81 3.5q110 0 307-37v43q0 95-18 162.5t-60 119T669 917t-184 25q-123 0-256-35v13q136 34 256 34 112 0 189-26t121-78.5T858 727t19-168V260q0-69-28-121t-68.5-80T686 13.5 590.5-9 508-14q-36 0-72.5 4.5T353 5t-85 31.5-72.5 51-53 76T123 268zm12 0q0-55 19-99.5T205.5 96 276 47.5 358 17t80-14.5T508-2q31 0 64.5 4t76 13.5 79 29 68 46.5 50 71 18.5 98v244q-201 37-307 37-40 0-79-3.5t-90-13-93.5-29-79.5-48-58.5-75T135 268zm199 1094h18l228-252h-15z"/><glyph unicode="á" horiz-adv-x="980" d="M123 268q0 61 22 109.5t60.5 78.5 82 50.5 96 30 92.5 13 81 3.5q110 0 307-37v43q0 95-18 162.5t-60 119T669 917t-184 25q-123 0-256-35v13q136 34 256 34 112 0 189-26t121-78.5T858 727t19-168V260q0-69-28-121t-68.5-80T686 13.5 590.5-9 508-14q-36 0-72.5 4.5T353 5t-85 31.5-72.5 51-53 76T123 268zm12 0q0-55 19-99.5T205.5 96 276 47.5 358 17t80-14.5T508-2q31 0 64.5 4t76 13.5 79 29 68 46.5 50 71 18.5 98v244q-201 37-307 37-40 0-79-3.5t-90-13-93.5-29-79.5-48-58.5-75T135 268zm314 842l227 252h20l-233-252h-14z"/><glyph unicode="â" horiz-adv-x="980" d="M123 268q0 61 22 109.5t60.5 78.5 82 50.5 96 30 92.5 13 81 3.5q110 0 307-37v43q0 95-18 162.5t-60 119T669 917t-184 25q-123 0-256-35v13q136 34 256 34 112 0 189-26t121-78.5T858 727t19-168V260q0-69-28-121t-68.5-80T686 13.5 590.5-9 508-14q-36 0-72.5 4.5T353 5t-85 31.5-72.5 51-53 76T123 268zm12 0q0-55 19-99.5T205.5 96 276 47.5 358 17t80-14.5T508-2q31 0 64.5 4t76 13.5 79 29 68 46.5 50 71 18.5 98v244q-201 37-307 37-40 0-79-3.5t-90-13-93.5-29-79.5-48-58.5-75T135 268zm141 842l228 252h12l229-252h-14l-221 242-219-242h-15z"/><glyph unicode="ã" horiz-adv-x="980" d="M123 268q0 61 22 109.5t60.5 78.5 82 50.5 96 30 92.5 13 81 3.5q110 0 307-37v43q0 95-18 162.5t-60 119T669 917t-184 25q-123 0-256-35v13q136 34 256 34 112 0 189-26t121-78.5T858 727t19-168V260q0-69-28-121t-68.5-80T686 13.5 590.5-9 508-14q-36 0-72.5 4.5T353 5t-85 31.5-72.5 51-53 76T123 268zm12 0q0-55 19-99.5T205.5 96 276 47.5 358 17t80-14.5T508-2q31 0 64.5 4t76 13.5 79 29 68 46.5 50 71 18.5 98v244q-201 37-307 37-40 0-79-3.5t-90-13-93.5-29-79.5-48-58.5-75T135 268zm148 852q18 36 49 59t67 23q39 0 113.5-40t112.5-40q68 0 104 82l10-4q-18-44-48.5-67t-65.5-23q-41 0-114 40t-112 40q-34 0-63-21t-43-53z"/><glyph unicode="ä" horiz-adv-x="980" d="M123 268q0 61 22 109.5t60.5 78.5 82 50.5 96 30 92.5 13 81 3.5q110 0 307-37v43q0 95-18 162.5t-60 119T669 917t-184 25q-123 0-256-35v13q136 34 256 34 112 0 189-26t121-78.5T858 727t19-168V260q0-69-28-121t-68.5-80T686 13.5 590.5-9 508-14q-36 0-72.5 4.5T353 5t-85 31.5-72.5 51-53 76T123 268zm12 0q0-55 19-99.5T205.5 96 276 47.5 358 17t80-14.5T508-2q31 0 64.5 4t76 13.5 79 29 68 46.5 50 71 18.5 98v244q-201 37-307 37-40 0-79-3.5t-90-13-93.5-29-79.5-48-58.5-75T135 268zm219 842v156h13v-156h-13zm308 0v156h12v-156h-12z"/><glyph unicode="å" horiz-adv-x="980" d="M123 268q0 61 22 109.5t60.5 78.5 82 50.5 96 30 92.5 13 81 3.5q110 0 307-37v43q0 95-18 162.5t-60 119T669 917t-184 25q-123 0-256-35v13q136 34 256 34 112 0 189-26t121-78.5T858 727t19-168V260q0-69-28-121t-68.5-80T686 13.5 590.5-9 508-14q-36 0-72.5 4.5T353 5t-85 31.5-72.5 51-53 76T123 268zm12 0q0-55 19-99.5T205.5 96 276 47.5 358 17t80-14.5T508-2q31 0 64.5 4t76 13.5 79 29 68 46.5 50 71 18.5 98v244q-201 37-307 37-40 0-79-3.5t-90-13-93.5-29-79.5-48-58.5-75T135 268zm232 977q0 73 37 112.5t106 39.5 106-39.5 37-112.5q0-75-37-114t-106-39-106 39-37 114zm14 0q0-69 33-105t96-36 96 36 33 105q0 68-33 103.5t-96 35.5-96-35.5-33-103.5z"/><glyph unicode="æ" horiz-adv-x="1775" d="M123 268q0 61 22 109.5t60.5 78.5 82 50.5 96 30 92.5 13 81 3.5q110 0 307-37v43q0 95-18 162.5t-60 119T669 917t-184 25q-123 0-256-35v13q136 34 256 34 207 0 295-90t94-272q12 75 40 136.5t75.5 114 122.5 82 172 29.5q72 0 132-20.5t99.5-52 69.5-76 46-87 26-90.5 13-80.5 3-62.5v-16H874v-29q4-120 41-209t99.5-138 135-72T1307-2q172 0 299 57V43q-135-57-299-57-78 0-146 18.5t-127.5 58-101.5 109T874 336v-76q0-69-28-121t-67.5-80.5T685 13 590-9t-82-5q-36 0-72.5 4.5T353 5t-85 31.5-72.5 51-53 76T123 268zm12 0q0-55 19-99.5T205.5 96 276 47.5 358 17t80-14.5T508-2q31 0 64.5 4t76 13.5 79 29 68 46.5 50 71 18.5 98v244q-201 37-307 37-40 0-79-3.5t-90-13-93.5-29-79.5-48-58.5-75T135 268zm739 211h787v6q0 29-2.5 60.5t-12 78-25 88-44.5 85-67.5 74.5-96.5 51-129 20q-90 0-161.5-27t-117-72T930 737t-42.5-124.5T874 479z"/><glyph unicode="ç" horiz-adv-x="905" d="M123 469q0 117 27 206t69.5 140.5 102.5 84T438.5 943 559 954q124 0 264-45v-12q-143 45-264 45-62 0-117-11t-113-43-99.5-83-68-137T135 469q0-94 18-170t50.5-126T276 87.5 366 33t96-27 97-8q121 0 264 45V31Q696-11 565-14L352-252h-22L551-14q-64 1-120 12.5t-114.5 44-99.5 84T149.5 266 123 469z"/><glyph unicode="è" horiz-adv-x="1021" d="M123 467q0 73 12 139t43 131 77.5 112 121 76T545 954q72 0 132-20.5t99.5-52 69.5-76 46-87 26-90.5 13-80.5 3-62.5v-16H135v-2q0-103 24-184.5t64.5-134 97-87 117-49T567-2q172 0 299 57V43Q731-14 567-14 496-14 433.5.5T313 50.5t-99.5 89-66 137.5T123 467zm12 12h787v6q0 29-2.5 60.5t-12 78-25 88-44.5 85-67.5 74.5-96.5 51-129 20q-90 0-161.5-27t-117-72T191 737t-42.5-124.5T135 479zm236 883h18l227-252h-14z"/><glyph unicode="é" horiz-adv-x="1021" d="M123 467q0 73 12 139t43 131 77.5 112 121 76T545 954q72 0 132-20.5t99.5-52 69.5-76 46-87 26-90.5 13-80.5 3-62.5v-16H135v-2q0-103 24-184.5t64.5-134 97-87 117-49T567-2q172 0 299 57V43Q731-14 567-14 496-14 433.5.5T313 50.5t-99.5 89-66 137.5T123 467zm12 12h787v6q0 29-2.5 60.5t-12 78-25 88-44.5 85-67.5 74.5-96.5 51-129 20q-90 0-161.5-27t-117-72T191 737t-42.5-124.5T135 479zm316 631l227 252h20l-233-252h-14z"/><glyph unicode="ê" horiz-adv-x="1021" d="M123 467q0 73 12 139t43 131 77.5 112 121 76T545 954q72 0 132-20.5t99.5-52 69.5-76 46-87 26-90.5 13-80.5 3-62.5v-16H135v-2q0-103 24-184.5t64.5-134 97-87 117-49T567-2q172 0 299 57V43Q731-14 567-14 496-14 433.5.5T313 50.5t-99.5 89-66 137.5T123 467zm12 12h787v6q0 29-2.5 60.5t-12 78-25 88-44.5 85-67.5 74.5-96.5 51-129 20q-90 0-161.5-27t-117-72T191 737t-42.5-124.5T135 479zm154 631l227 252h12l230-252h-15l-221 242-219-242h-14z"/><glyph unicode="ë" horiz-adv-x="1021" d="M123 467q0 73 12 139t43 131 77.5 112 121 76T545 954q72 0 132-20.5t99.5-52 69.5-76 46-87 26-90.5 13-80.5 3-62.5v-16H135v-2q0-103 24-184.5t64.5-134 97-87 117-49T567-2q172 0 299 57V43Q731-14 567-14 496-14 433.5.5T313 50.5t-99.5 89-66 137.5T123 467zm12 12h787v6q0 29-2.5 60.5t-12 78-25 88-44.5 85-67.5 74.5-96.5 51-129 20q-90 0-161.5-27t-117-72T191 737t-42.5-124.5T135 479zm232 631v156h12v-156h-12zm307 0v156h12v-156h-12z"/><glyph unicode="ì" horiz-adv-x="278" d="M-47 1362h18l228-252h-15zM123 0v940h12V0h-12z"/><glyph unicode="í" horiz-adv-x="278" d="M78 1110l227 252h21L92 1110H78zM123 0v940h12V0h-12z"/><glyph unicode="î" horiz-adv-x="278" d="M-104 1110l227 252h12l230-252h-15l-221 242-219-242h-14zM123 0v940h12V0h-12z"/><glyph unicode="ï" horiz-adv-x="278" d="M-31 1110v156h13v-156h-13zM123 0v940h12V0h-12zm153 1110v156h13v-156h-13z"/><glyph unicode="ð" horiz-adv-x="1071" d="M123 354q0 170 104 266.5T510 717q121 0 227.5-43.5T913 567q-5 396-200 557L430 965l-4 10 279 158q-124 98-306 98h-34v12h34q189 0 318-104l196 112 5-10-193-108q201-170 201-576 0-295-102.5-436T510-20q-99 0-175 30T214 92t-68 118.5T123 354zm12 0q0-74 22-138t66-115 117.5-80T510-8q204 0 303.5 137T913 549v6q-68 63-174 106.5T510 705q-173 0-274-94T135 354z"/><glyph unicode="ñ" horiz-adv-x="1003" d="M123 0v838q215 116 416 116 168 0 256-81t88-261V0h-13v612q0 174-85 252t-246 78q-195 0-404-111V0h-12zm145 1120q18 36 49 59t68 23q39 0 113-40t112-40q69 0 105 82l10-4q-18-44-49-67t-66-23q-42 0-114.5 40T385 1190q-34 0-63-21t-43-53z"/><glyph unicode="ò" horiz-adv-x="1122" d="M123 467q0 115 27 203.5t69.5 141T322 897t117.5 45T563 954q65 0 122-12t116-45 101-85.5 68.5-141T997 467q0-113-26.5-200.5T902 127 801 42.5 685-2 563-14q-54 0-103 8.5T360 23t-92.5 56.5-74.5 88-51.5 128T123 467zm12 0q0-111 27-196t68.5-135.5 100-82.5T445 9.5 563-2 680.5 9.5t113 43.5 98.5 82.5T959 271t26 196q0 113-26 199t-67 137.5-98.5 83.5-113 43.5T563 942t-118-11.5T330.5 887t-100-83T162 666.5 135 467zm250 895h18l228-252h-15z"/><glyph unicode="ó" horiz-adv-x="1122" d="M123 467q0 115 27 203.5t69.5 141T322 897t117.5 45T563 954q65 0 122-12t116-45 101-85.5 68.5-141T997 467q0-113-26.5-200.5T902 127 801 42.5 685-2 563-14q-54 0-103 8.5T360 23t-92.5 56.5-74.5 88-51.5 128T123 467zm12 0q0-111 27-196t68.5-135.5 100-82.5T445 9.5 563-2 680.5 9.5t113 43.5 98.5 82.5T959 271t26 196q0 113-26 199t-67 137.5-98.5 83.5-113 43.5T563 942t-118-11.5T330.5 887t-100-83T162 666.5 135 467zm361 643l227 252h20l-233-252h-14z"/><glyph unicode="ô" horiz-adv-x="1122" d="M123 467q0 115 27 203.5t69.5 141T322 897t117.5 45T563 954q65 0 122-12t116-45 101-85.5 68.5-141T997 467q0-113-26.5-200.5T902 127 801 42.5 685-2 563-14q-54 0-103 8.5T360 23t-92.5 56.5-74.5 88-51.5 128T123 467zm12 0q0-111 27-196t68.5-135.5 100-82.5T445 9.5 563-2 680.5 9.5t113 43.5 98.5 82.5T959 271t26 196q0 113-26 199t-67 137.5-98.5 83.5-113 43.5T563 942t-118-11.5T330.5 887t-100-83T162 666.5 135 467zm191 643l227 252h12l230-252h-15l-221 242-219-242h-14z"/><glyph unicode="õ" horiz-adv-x="1122" d="M123 467q0 115 27 203.5t69.5 141T322 897t117.5 45T563 954q65 0 122-12t116-45 101-85.5 68.5-141T997 467q0-113-26.5-200.5T902 127 801 42.5 685-2 563-14q-54 0-103 8.5T360 23t-92.5 56.5-74.5 88-51.5 128T123 467zm12 0q0-111 27-196t68.5-135.5 100-82.5T445 9.5 563-2 680.5 9.5t113 43.5 98.5 82.5T959 271t26 196q0 113-26 199t-67 137.5-98.5 83.5-113 43.5T563 942t-118-11.5T330.5 887t-100-83T162 666.5 135 467zm197 653q18 36 49 59t68 23q39 0 113-40t112-40q68 0 104 82l10-4q-18-44-48.5-67t-65.5-23q-42 0-114 40t-111 40q-34 0-63.5-21t-43.5-53z"/><glyph unicode="ö" horiz-adv-x="1122" d="M123 467q0 115 27 203.5t69.5 141T322 897t117.5 45T563 954q65 0 122-12t116-45 101-85.5 68.5-141T997 467q0-113-26.5-200.5T902 127 801 42.5 685-2 563-14q-54 0-103 8.5T360 23t-92.5 56.5-74.5 88-51.5 128T123 467zm12 0q0-111 27-196t68.5-135.5 100-82.5T445 9.5 563-2 680.5 9.5t113 43.5 98.5 82.5T959 271t26 196q0 113-26 199t-67 137.5-98.5 83.5-113 43.5T563 942t-118-11.5T330.5 887t-100-83T162 666.5 135 467zm264 643v156h13v-156h-13zm308 0v156h12v-156h-12z"/><glyph unicode="ø" horiz-adv-x="1122" d="M123 473q0 113 26.5 200.5T218 813t101 84.5T435 942t122 12q180 0 293-92l57 78h15l-64-84q139-122 139-383 0-115-27-203.5t-69.5-141T798 43 680.5-2 557-14q-181 0-289 92L209 0h-14l63 84Q123 209 123 473zm12 0q0-258 131-379l576 758q-108 90-285 90-62 0-117.5-11.5t-113-43.5-98.5-82.5T161 669t-26-196zM274 88Q379-2 557-2q62 0 118 11.5T789.5 53t100 83T958 273.5 985 473q0 252-135 373z"/><glyph unicode="ù" d="M123 379v561h12V379q0-184 97-282.5T508-2q178 0 275.5 98.5T881 379v561h12V379q0-190-100-291.5T508-14 223 87.5 123 379zm213 983h18l228-252h-15z"/><glyph unicode="ú" d="M123 379v561h12V379q0-184 97-282.5T508-2q178 0 275.5 98.5T881 379v561h12V379q0-190-100-291.5T508-14 223 87.5 123 379zm313 731l228 252h20l-233-252h-15z"/><glyph unicode="û" d="M123 379v561h12V379q0-184 97-282.5T508-2q178 0 275.5 98.5T881 379v561h12V379q0-190-100-291.5T508-14 223 87.5 123 379zm151 731l228 252h12l229-252h-14l-221 242-219-242h-15z"/><glyph unicode="ü" d="M123 379v561h12V379q0-184 97-282.5T508-2q178 0 275.5 98.5T881 379v561h12V379q0-190-100-291.5T508-14 223 87.5 123 379zm225 731v156h12v-156h-12zm307 0v156h13v-156h-13z"/><glyph unicode="þ" horiz-adv-x="1005" d="M123-371v1680h12V889q157 65 336 65 432 0 432-483T471-12q-179 0-336 65v-424h-12zm12 437Q287 0 471 0q420 0 420 471T471 942q-186 0-336-65V66z"/><glyph unicode="ÿ" horiz-adv-x="970" d="M96 940h15L506-18l362 958h15L467-158q-48-124-110.5-175.5T205-385q-47 0-92 18v13q47-19 92-19 80 0 141 47.5T455-154l45 119zm240 170v156h12v-156h-12zm307 0v156h12v-156h-12z"/><glyph unicode="ˆ" horiz-adv-x="675" d="M121 1110l227 252h12l230-252h-15l-221 242-219-242h-14z"/><glyph unicode="˜" horiz-adv-x="665" d="M117 1120q18 36 49 59t67 23q39 0 113.5-40t112.5-40q68 0 104 82l10-4q-18-44-48.5-67t-65.5-23q-41 0-114 40t-112 40q-34 0-63-21t-43-53z"/><glyph horiz-adv-x="839"/><glyph horiz-adv-x="1679"/><glyph horiz-adv-x="839"/><glyph horiz-adv-x="1679"/><glyph horiz-adv-x="559"/><glyph horiz-adv-x="419"/><glyph horiz-adv-x="279"/><glyph horiz-adv-x="279"/><glyph horiz-adv-x="209"/><glyph horiz-adv-x="335"/><glyph horiz-adv-x="93"/><glyph unicode="‐" horiz-adv-x="944" d="M123 522v10h684v-10H123z"/><glyph unicode="‑" horiz-adv-x="944" d="M123 522v10h684v-10H123z"/><glyph unicode="‒" horiz-adv-x="944" d="M123 522v10h684v-10H123z"/><glyph unicode="–" horiz-adv-x="1333" d="M123 522v10h1077v-10H123z"/><glyph unicode="—" horiz-adv-x="1910" d="M123 522v10h1640v-10H123z"/><glyph unicode="‘" horiz-adv-x="360" d="M102 1243h13l98-330h-12z"/><glyph unicode="’" horiz-adv-x="354" d="M102 913l99 330h12l-98-330h-13z"/><glyph unicode="‚" horiz-adv-x="342" d="M102-170l99 330h12l-98-330h-13z"/><glyph unicode="“" horiz-adv-x="598" d="M102 1243h13l98-330h-12zm252 0h13l98-330h-12z"/><glyph unicode="”" horiz-adv-x="587" d="M102 913l99 330h12l-98-330h-13zm252 0l99 330h12l-98-330h-13z"/><glyph unicode="„" horiz-adv-x="585" d="M102-170l99 330h12l-98-330h-13zm252 0l99 330h12l-98-330h-13z"/><glyph unicode="•" horiz-adv-x="641" d="M207 680q0 56 38 94.5t93 38.5 93-38.5 38-94.5-38-94.5-93-38.5-93 38.5-38 94.5z"/><glyph unicode="…" horiz-adv-x="995" d="M164 0v160h12V0h-12zm332 0v160h12V0h-12zm331 0v160h13V0h-13z"/><glyph horiz-adv-x="335"/><glyph unicode="‹" horiz-adv-x="634" d="M96 522l398 400h16L113 522l397-393h-16z"/><glyph unicode="›" horiz-adv-x="567" d="M76 129l397 393L76 922h16l397-400L92 129H76z"/><glyph horiz-adv-x="419"/><glyph unicode="€" horiz-adv-x="1179" d="M45 451v10h150q-11 83-11 147 0 89 11 154H45v10h152q18 109 60.5 194t97 136 124 84 135 45 136.5 12q156 0 352-63v-13q-192 64-352 64-70 0-134-11.5T484 1176t-121.5-82-95-132.5T209 772h625v-10H207q-10-59-10-154 0-72 10-147h627v-10H209q16-109 58-192t95-132.5 122.5-81T618.5 3 754-8q170 0 348 55V35Q917-20 754-20q-73 0-139 11.5t-136.5 44-125.5 83-97.5 136T197 451H45z"/><glyph unicode="™" horiz-adv-x="1343" d="M61 1214v9h521v-9H330V610h-11v604H61zm607-604v613h10l262-355 262 355h10V610h-10v596L940 852l-262 354V610h-10z"/><glyph unicode="" horiz-adv-x="942" d="M0 0v942h942V0H0z"/></font>
</defs>
</svg>
